<mxfile host="app.diagrams.net" modified="2021-10-30T11:55:40.242Z" agent="5.0 (Macintosh; Intel Mac OS X 10_15_7) AppleWebKit/537.36 (KHTML, like Gecko) Chrome/95.0.4638.69 Safari/537.36" etag="3aG__nQm-edMzDwvlMTs" version="15.6.2" type="github">
  <diagram id="5w2NXvA2qUq6tAWD_qzD" name="第 1 页">
    <mxGraphModel dx="3682" dy="1844" grid="1" gridSize="10" guides="1" tooltips="1" connect="1" arrows="1" fold="1" page="1" pageScale="1" pageWidth="827" pageHeight="1169" math="0" shadow="0">
      <root>
        <mxCell id="0" />
        <mxCell id="1" parent="0" />
        <mxCell id="J_k8vYTDvHg9-RJwA689-81" value="" style="rounded=0;whiteSpace=wrap;html=1;labelBackgroundColor=none;align=left;verticalAlign=middle;" parent="1" vertex="1">
          <mxGeometry x="1670" y="280" width="2260" height="860" as="geometry" />
        </mxCell>
        <mxCell id="J_k8vYTDvHg9-RJwA689-44" value="" style="rounded=0;whiteSpace=wrap;html=1;labelBackgroundColor=none;align=left;verticalAlign=middle;" parent="1" vertex="1">
          <mxGeometry x="1100" y="-470" width="3500" height="740" as="geometry" />
        </mxCell>
        <mxCell id="J_k8vYTDvHg9-RJwA689-3" value="" style="edgeStyle=orthogonalEdgeStyle;rounded=0;orthogonalLoop=1;jettySize=auto;html=1;" parent="1" source="J_k8vYTDvHg9-RJwA689-1" edge="1">
          <mxGeometry relative="1" as="geometry">
            <mxPoint x="410" y="375" as="targetPoint" />
          </mxGeometry>
        </mxCell>
        <mxCell id="J_k8vYTDvHg9-RJwA689-15" value="1" style="edgeLabel;html=1;align=center;verticalAlign=middle;resizable=0;points=[];" parent="J_k8vYTDvHg9-RJwA689-3" vertex="1" connectable="0">
          <mxGeometry x="-0.08" relative="1" as="geometry">
            <mxPoint as="offset" />
          </mxGeometry>
        </mxCell>
        <mxCell id="J_k8vYTDvHg9-RJwA689-1" value="starter&lt;br&gt;AnnotationConfigApplicationContext" style="rounded=0;whiteSpace=wrap;html=1;" parent="1" vertex="1">
          <mxGeometry x="110" y="340" width="200" height="70" as="geometry" />
        </mxCell>
        <mxCell id="J_k8vYTDvHg9-RJwA689-6" value="" style="edgeStyle=orthogonalEdgeStyle;rounded=0;orthogonalLoop=1;jettySize=auto;html=1;" parent="1" source="J_k8vYTDvHg9-RJwA689-4" target="J_k8vYTDvHg9-RJwA689-5" edge="1">
          <mxGeometry relative="1" as="geometry" />
        </mxCell>
        <mxCell id="J_k8vYTDvHg9-RJwA689-41" value="3" style="edgeLabel;html=1;align=center;verticalAlign=middle;resizable=0;points=[];" parent="J_k8vYTDvHg9-RJwA689-6" vertex="1" connectable="0">
          <mxGeometry x="0.6328" y="-1" relative="1" as="geometry">
            <mxPoint as="offset" />
          </mxGeometry>
        </mxCell>
        <mxCell id="J_k8vYTDvHg9-RJwA689-8" value="" style="edgeStyle=orthogonalEdgeStyle;rounded=0;orthogonalLoop=1;jettySize=auto;html=1;" parent="1" source="J_k8vYTDvHg9-RJwA689-4" target="J_k8vYTDvHg9-RJwA689-7" edge="1">
          <mxGeometry relative="1" as="geometry">
            <Array as="points">
              <mxPoint x="1588" y="410" />
            </Array>
          </mxGeometry>
        </mxCell>
        <mxCell id="J_k8vYTDvHg9-RJwA689-42" value="4" style="edgeLabel;html=1;align=center;verticalAlign=middle;resizable=0;points=[];" parent="J_k8vYTDvHg9-RJwA689-8" vertex="1" connectable="0">
          <mxGeometry x="0.1283" y="2" relative="1" as="geometry">
            <mxPoint x="120" y="154" as="offset" />
          </mxGeometry>
        </mxCell>
        <mxCell id="J_k8vYTDvHg9-RJwA689-10" value="" style="edgeStyle=orthogonalEdgeStyle;rounded=0;orthogonalLoop=1;jettySize=auto;html=1;" parent="1" source="J_k8vYTDvHg9-RJwA689-4" target="J_k8vYTDvHg9-RJwA689-9" edge="1">
          <mxGeometry relative="1" as="geometry" />
        </mxCell>
        <mxCell id="J_k8vYTDvHg9-RJwA689-43" value="5" style="edgeLabel;html=1;align=center;verticalAlign=middle;resizable=0;points=[];" parent="J_k8vYTDvHg9-RJwA689-10" vertex="1" connectable="0">
          <mxGeometry x="0.2416" relative="1" as="geometry">
            <mxPoint as="offset" />
          </mxGeometry>
        </mxCell>
        <mxCell id="J_k8vYTDvHg9-RJwA689-4" value="" style="shape=image;verticalLabelPosition=bottom;labelBackgroundColor=#ffffff;verticalAlign=top;aspect=fixed;imageAspect=0;image=data:image/png,iVBORw0KGgoAAAANSUhEUgAAAtwAAADYCAYAAADYpzRWAAAgAElEQVR4Ae29539VR5buP/+SDQ1YsoQSCAQCkbPJOecMImcMJhjb2BgnTHTCCWe7nd3uCd0z0z13pqfvzL09d0L33DC/7nfr9/mWWEelrX3OPgpHHMHzYn9q74qrVj1V+6l11q7zZ4Mrqqwvrzlz5thDDz2kSzoQBoQBYUAYEAaEAWFAGHggMPBnfUm2aUuEW5sNbbiEAWFAGBAGhAFhQBh4kDAgwq2d5QOxs3yQJrX6qpeYMCAMCAPCgDBQXhgQ4RbhFuEWBoQBYUAYEAaEAWFAGCghBkS4S6hc7S7La3ep8dB4CAPCgDAgDAgDwsC9wIAItwi3drTCgDAgDAgDwoAwIAwIAyXEgAh3CZV7L3ZQalM7d2FAGBAGhAFhQBgQBsoLAyLcItza0QoDwoAwIAwIA8KAMCAMlBADItwlVK52l+W1u9R4aDyEAWFAGBAGhAFh4F5gQIRbhFs7WmFAGBAGhAFhQBgQBoSBEmJAhLuEyr0XOyi1qZ27MCAMCAPCgDAgDAgD5YUBEW4Rbu1ohQFhQBgQBoQBYUAYEAZKiAER7ocesrq6Ol3SgTAgDAgDwoAwIAwIA8JAURjo6i8IItwi3EUBS5sSbcqEAWFAGBAGhAFhQBhow4AIdzd+DhB4tIAIA8KAMCAMCAPCgDAgDBSLARFuEW5ZrPVzmDAgDAgDwoAwIAwIAyXEgAh3LxHu4cOHW3Nzs9XX1wuwJQRssTtJ5ZPVQRgQBoQBYUAYEAbuNQZGjx5tjY2NXf7AVD7ceXy4ly9fbmfPnrURI0aIcItw35cYYMFYsGBB2Fje6wWst9ufPHmyzZ49u1+O25w5cwz5e1snxdTXn/VWTP8exDw9GdP7eY0oZyyMHTvWFi5caBj+uiNnT9YQjXnhDc2kSZPsySeftJkzZ4pwd9XET/40QB8+fNi2b9+empaWv6dxs2bNsoMHD9rjjz9uBw4csKlTp/ZZ28i+ZMmSPm+zpzrri/LTpk0zsLBq1ao+HQ/6NmHCBFuxYkW3280aU8g2C8eGDRu63UbaGIwfP95aW1vt5MmTdvToUVu0aFGv1k+bzA/aYGy4pkyZ0qGNY8eO2fnz54MVIk3GQnFstqmTOVkoX1fS1q1bl5OVukeOHJlaN5YTxuTQoUOp6V1pM5mXl/fq1auNNpJp/twTvXkdaWGp1zfqnz9/ft5+pclUbFwxeiu2rkL5GBew0dLS0qv96MmYlmqNKKSHpqamoIdx48b1qh4KtdmTtN27d9u8efO6JCu/nsMvmOeM+dKlSzuU37JlS1gHumM0yFpD7tV7oSc6LqeyGzduDO82vB+6yjdLbuFmp5V1dVXo3s6fHEwsAr6DSaZNnDix4II4ffp0Y8FIliv0zAJ77ty5QLTXrFkTJuDp06f71Lp+5MiRHpG7Qv3rz2kQJYgb+unrfrCIP/HEE91uN2tMWZjpH5jurb6xCPGCP3HihIFlXkbMJeZFb7VBPRB5rs2bN4cLkh/XD1FYtmxZh7g4vdA9G17GnLoL5etK2uLFi0N9O3fuDPoYNWpUat3oj80da2ZX6i8mLySfsUhuTuKyPdFbXE983xfr26ZNm8IGLG63t+6L0VtvtIVVk/Fho90b9XkdPRnTUqwRLle+EDKKHnpzXcrXVm/EHz9+vBNhzqqXtYV3PMSa++R8x6DA+plvY16o/qw15F68FwrJW05pWfytoaHBTp06ZWvXrg1ztKtctE8IdyGhAFqh9L5ISw44izeEAeAm0/bu3RtISjLen3FD6aplDAvgmTNnctY4X3idpLDwsCvlmd0VFrjkRKRN0iBQyZ+jAQltkM4kji0HEAFe8FjWsRhyzxUTGMjBypUrDb2wE+/qz1z89LJ+/fpgSfU+ub4KhfSb9rAyIzvW3uRmJp9svLToG/VTnp/n/L4rVgN+ddixY0cgYLx8XN4s2bLSqQcdo2t0E8uE7MRjAQFPPiaxpbgnYwp2vE7CtBd8PtmQ2y0kjAfWccbX9ZLELvEQcHDneWgfMkxZxijGUzF6ox42IhAJr9ND9Oh98/H3NEJ+LnW5wSJ94SdCz4MLGZtfxhxC7/GELhuEFdmZEzFxpm3WMyyt4JX2Gae4Dt/Mx+U8HVlc9rQ1BL0x95mHhEl3N+qkb8l0+ky9jAFEhnRvx3WfpTfWQvQNVul3V+ZC1vpG/7uLN/REX9gkMV7erxiT+dYI2mWsYusi+qB/YKMYvfnYdTdkLeblzcU6lSTchWQHj4XeC4XGFP0k5wftUx99yVojfC4UWpvRoc8TCGSs50L6csKNjK4b2ovLFNIL+fLNBdJ8noJn5in4THvXx+3F98w7MELf6H+ScGfJRl0YItI29PTTMUwIBuO2GR906WtYjHPyFVpDGG/qzPeuzxpz6u/uPKUsegMD6Jxf2gpt/OM+9+V9Fn/DCIYxxjlUV/lpnxPuJMFOPne1A72RPx7Q5A6GNEiEk1hIKS8uJiiLPQs0aeQhL0SAhQZwpb0047b8HhAyaf2ZkPr8ZQhZBAjsrHixcM/PUL5IUJ6Fmp+nIDcQBmTw+pjcgIR0dtXI6PJSH3GkUy/3XC47kxDZiNu/f3/Is2fPnlzd3ka+kIUB2XgZsomhHcY8X/44Pu43stMvCLDnKSQb/Udm8m7dujUsMtyzyEEavI5CIWNImzNmzOhE8LJky0pnsXF9oxd0xCKEPHPnzg2yswkj3seEzZ7L25MxZey9TsYDWb1ewkKykQ7GKE+I2wgy8hIjDfLOs+OLOF5AjBX36JT+0nfK037cryy97du3L+CQcmAKTHL5/IRMIhu6S84p2qc8ZcET84l8TjJIpx/IxkuNfsTEMk026vF5iLWKOrmwIlGelwv1+lWIcPv8BHNg1ssQxnqjbvLEbaNfxoK5TbynUxb9+3gjE3n82V/oWXrbtWtX0Btjhn54aVMv9afpJZ6nWetbT/AG6aEvyESfvV9ugSq0RiA7axE68c0bBgvqAsfF6I06unuBLcbCx8znkm+As2SP9Z72Xig0ppBM5oGPIX1gXecXGO6z1oi4bcdbPOasmdQPTpinzAn6V4yunHBTlvcc+mGeEk/5LL0UmguUZ56Ck3ieFvtOoDy6jtcQ5APjxcjGesB6RRn65+uXG1PAIbKRDi7jdZT6C629pBdaQ7Le9Vlj3pN5imxwJ+Yo6xdY4N7XbdLv1dUV/sZ7lzFzWbvKP0W4Ez7cvoOJ/ehYvAE/gIUcYHnkZU4c5MgnIPGQCSYVE4ZJ6QNTKEx7IcX5Wdxoy3f5kOH4mUnoL3Ze/pAKLHTUAWnn2QkRC2ySZJAv389MLAC8gJx4sJDSNjvdWMZ89xBcdtWkIxu6Qk/58sfx3m+3QDI2tO1jU0g2+kleFl/aZLy4Z/x8cYvbSrvnZUzf0SGLRUyCsmTLSmfR50UUEx4W4FiOfC4lPR3TuA1eOsgax2XJBt4gYJRhg8pLcdu2beE5jXDHdTNmLLSOHx9Tfy6kN/ADrrmog3H1Z58b3lbanALDYMLHnzaZozHhhsAxX2iLORzrxmXzlwRzivq8bfTGiwScIQd1oV+XibAQ4fZ8kJ4Ya8Qn9caGkrbZGJBOiNxOSlw2t8SQB7kow4vT20qGaXpzAuR648UcryGul3zzNK3OuN2e4M3rgVwyR/3Zw0JrhOdB14wTaxu44tcDTyMsRm9x/mLv0Sfri69n4JDxccKdJbvr3fGXfC+4HGn6p0/01bHvz2l+8GlrhLedb8xZ91kn3GjEmt9Vwu3jwLwFb+4ilqWXrLng85RNLDoCO7y3XV+FQsaKMUIG8vkago55zpINYx1rFrpAP75+sQ7G7eZbRwutvXH5tDXE0/O96z2dMG3MezpPWU99TFlf0UVsGIzb78v7YvkbOGTO+DqIjGVLuCEvyQthieuq0L2dPx5cFm1eXHEcExMlQyp4QQMcJimyQzh4AWHJhcwxGZkUWEoKvdji+tMWxDidxY1dr8exiLGT9Rc/8jBxATAXO7C4D8hHG1hQuZhMDnyvM98kpF/k97oJ6SMvJy9bKIRQIj+km7axgjhZK1SOtGS/nTD5Ip8lG3Kz+EJsWfD5+Y+FtdhxcWsEstBWbDHNki0rPfmTIlhKbtDyEW7k6cmYxnpPW1izZAPfMX5YiH1M870ovE30yHj4M1iO8ZSlNy8H5tPIgaenzSmXzQkOecGDkw6e2TyAce7TNlnJeRjLHuuB8mlj2l3CndQb9VMXRIl7f2ZcmGesP8jmc4X0Yohjmt5cZuaft8X643rKGrO0Or0ewp7gzevJR7iz1gjKoxdwwMvUN1ter6ejy2LXjbhsofvkmDqZc8KdJXtS78n3gredT//g239doi5IrRsAvCxh2hqRbDu5NkP4fBNOHbgzdJVwx9iN8ZalF9oDs/nmQnKeQpLjeR33PXnvcyH+ZQDsoGPyFiMb+ZKYT7bjaxXrfJxWaO2N85WCcCdlTq5vWbIxhhiV2Iyx5rpxIJb7XtwXy98YW+aIb9SQtatcVBbuyMLNogHpiXcwMQAAMWSWyRkTDvLgWwzgIB5YLSB3cdlC9/kWRC/D4sai58/JEPIBUWDx9IsXLvmwcAESyKKn8ZyUvxDhJr+X9dCtKklZ4mc2I9SLvrwci66Tszhv2n2y32619oXYJ4DX7aHLxlhhFSGEhDDJeammvVTS2kd2dEvIospL18lalmxZ6bzsIAneLtapYgl3T8fU2yRMe5lmyQbO3dpEHSygPqb5XhTeJmOGPv0ZjMSkNUtvXq63CDd4dMLNHGYMiHPcMu7eZlK2pOy8yFkjPH/amKa9sD2/h2kvy6TePK+HkAZk56XGPIA49jbhjr+fwCoUE+54fUrO06z1rSd48/4XItzFrF+4U6AvXze9XsJiNipx/mLvk2PKix8ZYsJdSPYkHvO1m0//lGc9ZFyZvzF247rS1ohk28kxp66eEm5fx5ElxlvWup81F5LztDuEO54LvFtjwl1ozFyvSfLq8R7mW0cLrb1eljBtDfF01jZ06M9pYdqY93Se8muAewGwVsGTWA/T2u/rOMYzi79hKIoxjYwi3D344xs+hGCypBEyXspODLDWslDFFg8szBBLBo4XHi/teCdUCEDs/inLzyzkY4EH8P5zS3JxS9aVnBwsfm6NghiR7j/tURYSkUa46X+ybvLFll1khPBBNpJ5k88smOgsnlQA1slZMn/yOdnv5KKeJRsLKy9SQqyhLHJxX5Ltxc+0xaIAmYRYcEHy/EOjLNmy0lkQwYy3yaLPAuTPhFi4wWMcx31PxzSuL4kd0rJkK7Tou5XON0XUB/lzbCE7c8NlcMuYb1Cz9OblukO4nTg5wQafjLE/gxHmtY83v3CA33iTxRg59h2PLjs4i39ZYkypz2Um7C7hTuqNNQr8uJ6ZU+Db20obB+9/vG55fg/TyJnPY3f7IS8YcFexrDHLWt96gjeXOx/hzlojKI98PteT6zrpxeiNX/x8vXaZskJki+cCYxkT7izZk3rP117amHq/wDPphPl+MUpbI5Jt+1xwPDIerLX+LmWM477mk5V4d2GK9QnZwWhCepZesuZCTwi3z4XYVYt3txPuLNm83/eacPt67PIkw7Qx7+k8ZR45x2FzCR664juPjOAMy3rMZ2LZ2agU+vUdTDGGcRnus/gba6bzv7hs2RPupIAoLxnX18+uwLQdjKfxUnWLDi9ciJi/iMnDou0LFvEsOPlA4XV66C9h6sT3EmCz8DtpTi5uXs5DCD6y88UyVjUWOvcBxVpPXcgGGOkDwGFh8PKEWIGxjkE+6Ivv4Ok3+VnsAB0ThJdT8qeuuC6/d4sNViNe1hAQCGRvEe4s2djF03f6yiTjpcIu3eUrFDpZ8hcGeSnr/ufJMUm+cLLSISvIA5FibCAwWHFimRhPdM+YMSb+RXpPxxRdUB8XxJUXEPfu558lWyHCzdzgBQSemNvghj64j6KPGWSW7x/QKXpgMabvWXpz/eQj3JSnL4wTLw3vp/98yYsO/DJfqAM8OuFm/sVjwMuBPJ5O3fSFfCzqzFPqYuyRCz3yzJgyD7EkxdZ88jiZYOPpslGey5+Zh+jPnykX6426KR/PQ57ZSJMP0kM/kdUJEHUwNswHXi7UDcaJ5yqkN9Yx9MA6w5i5uwpyeFl07XUl50LW+tYTvHmbfGcD7tA9ffOXqust3/rFWg0GwCPjjd7BdzzvC+mN9lkrGQv04/IUE4Ihxgh9Mrcpz7NbuLNkT86VZJuFxtTzMv/4mR8dxH3OWiOSbSfHnHcFOgEX4JKx6SrhZi6il3xrSL4xzZoLPSHcGNHQFXpj/PhOgzFzwp01Zq73fISb/oJf5gT18g7j2Y1WhdberDXE2873rs8a857MU9Z38IDu6SP4YU2hTpermJC1C73k2zCAZdLTjApwENJo14m/t4mOC/E31vw0Y11XuWqfuJTw4i10dVXo3s6P0vH1ZTDiXbUPRl+ELB4QDwdE7NaSXNyS8gAkXuyU5WKhckLMIuo/l5KGBQ6ykSTcTtS9Dn9h0RaEjxc1aYA1WTYpT/zMy4SJRlkWXhaqnhLuYmXzD8foG6QBOYrdUSfJF31iktMH7pNj4i8cly0rnXFBD64bXIK8rOuPRQFS57hwvfV0TFnEfZzjkIWYtrNkK7ToUx6986KlbvrnZMb7BZ68T+RzMk56lt68DnAYl4vj4z75PYs8eegbiyu4ZM4znk6omRfEe12E4JUXOPcum5NZ5kT80ywvE+YXCzPtQjLSrC30nzSXjZepk1KP8xD9uTyx3ui/y006JI1xoRxlwC/3SUzxgvOxIfS6qc/bjEPXG+u3l2Ps/BSQWC9eV3IuEF9ofesp3qif9Y6Nis+neI0qtH5BcmNLLGsp/UuuE/n0RtvgEJ2xGXEdFBtiGEFmLnBGPcjg5QvJ7nj0vMkwa0zJTx20yToTl89aI5Jtp405pAf52QRxdZVwow8fT4hWTJIK6SVrLiQJN0QrnguxHtLuWT98/WLNjNcQ8heSzetjDcEo588e+toSz0Hufb4VWnuLWUNoJ9+7PmvMezpPqd/1Rp/gKeDG+15M6OsaY5CWnzWcdTmeQ56PzTXt+zvc47NCuAPrNeOazNtVLlpywj24osrii4W7q0KWOj9KzLeDSSq4lM8MLBaweGHpSnuA1y3TyXLsMLsK7rgOlw1rTxxfzL2X7W6/strw+rsjW1bdpU7HYuLW3a621dMxzWqvJ7Ix1mCZsUlrh/ie4DGtzmLjaJvLyRXkoZiyMclA9mTf4hc5v06VAu+0WWiNoN1iXdmK6XOch/7Q7+72K0v2nuAtljPt3tsuxRoBcYJMdlcv9Dvfuk1fSil7mq56Kw5dIzv96+77tRAmsvRSyrlA3/wX6DR9ZcmWVqa/xBUak6w+uF6oIytvWjpzLEvvheYS70w2Dml154vjl0A2fm7EjPN1lZuKcN/9aJKXqVtzYoXq/t6djyndS/e9jYGkFYifIIsl/jHhTpMrJtxp6Yq7P/HMr4tY8DW+HceXX4diS6101FE/wkv/0Ae/UsYeB/G4iXD34KPJWJG67x+TQeOkceoKBrB+YLHg4te2rvy6wE+SaW4s3j4uKvfKJc1lUNj384ENWyks5/19LCEqPtfibwn6e78kf9/PsXLVuQi3CLcsLffwX6vKdWGQXHpJCAPCgDAgDAgDvYcBEW4RbhFuEW5hQBgQBoQBYUAYEAZKiAERbhFuTbASTjBZB3rPOiBdSpfCgDAgDAgD/RUDXSbcjzzyiPXlhd9kX7b3wLc18lF7RJd0IAwIA/kw0MfvgAd+TZa+xQGEgQcSA3/W14tfbxDu3Qur7Nuzw+xfr44MF/fE9XVf+kV7+V6yihcBEwaEATCgl790IAwIA8JAyTHQrwj3oxWP2Ccn6+2/3hyVepFGHr1A2nTwxRdfGJcs3LLyCwPCQF4M6EWrd4YwIAwIAyXHQL8i3E9vrEkl2jEBJ48Itwh3XnIhq642YMJARwzoRat3hjAgDAgDJcdAvyLc/+1SYybhJo8Itwi3CLcsusJAkRhIedEOq62w0Y2VWktTdKP3i35FLhUGmkdUGHOvt+qvHFppXL1Vn+rpGfb7FeH+v681ZRJu8vRXUNRVVdiWyY/a6F6acA+KS0nLlDq7dGSWLVgwoqPl7j6wZO7aMN7O7J3WL/t1dv8027lh/D2RvT/rrc83CglSeXpbnf32vTF2fHNtv11L++s7QHL3jND0d/3tWT3U/uWjsXZxb32P5l5VY7WNfnKWtby22IZvaulRXf1dp+Ukf78i3L97ZUQm4SZPXyu4cWiFfbSl1sY3dN6ZttS3pZHOdWR2/o87Idu/PtRg5xZU90ofYsK9f9tE+18fbrK3n17Y5wRo/cox9ub5+d1u98rjc2zvlol5y0O2//Rjq312eUnePN0hMetWjrFfvbHO/uun2+0/Pt5sL56Y3av1IxP9+vWb68LYMD6tmyd0aOP3n2yxP/2s1cZOrusQX0x/bp2ZG+o9tWdql8vmq/+jS4tzsiLvlBnDUuueN39kGJPf3dmcmp6v/mLimybU2rvPLLT5BTZYPdFbIRnQ5f94f5P98csd9k/vbSyIy0L15Et7vHWqPXNoZq/rjPby6i0i3C8carDff95it04Ns0lj2i1jU2fOsXOXr9uVtz+1y7fu2Mad+8IaNWHyNHv+xru5a/ehx3tl7erNNfzxp18M8l146TXbtu+oVVbmX4N7s937oa7Nuw/avMXLuzWmdfUNtvfoaWuZMKlb5WP9nXv+mq3etDNXz9I1m+zZa7ft1Xc+t4uv3s7J2B/wGPcred/SVGFXjzfYf3zWYq8ea8j1N5kv63n4lnE25pUFVjd/hD06onf4RFabSs/eLJaccHMqSdZV7EB9fKIhk3B/dKL7IC1WjmQ+LNIQ5SkjOhPuUbUV9tzS6nB9tbPOnlmSH/xNNRV2Zn61TUupJ9lmMc8x4YYo/emH3fbvH/c+AcpHHjz+qYMz7I/f7Ow2ifj3jzYXJOxz5zYa/du8Zmy323BZPRzaXGV/+GSr/Z/Pt9mdZxfZr95YGwjk4e2Teq0N2vqPj7cEMv/tKyuMC5LvMhA+d2SW3Twzr0NcnF7oHkLImH/98vJulU+r+5WTs4Ocv7y1Juhj5pzhqXWjv9tPLbAz+3rfOj915rDQduumjpuTWN6e6C2uJ75fsXS0/en73fZP72609y8usn/9aHPA9cTpDak6iMsWe//VS8vt12+s67X64nbz6u0u4Z49qcr+/dMWe2ZfR+saBPXF1z+0V976xPYdP2uQnzc++cEWLFtlY8dPsuPnnw8X6cfOPddtklDMmlZsnvjj+b3HztipZ14KxAy5efZ64nwep7CdOFy+9b7tPHgip6+u6KZp1JiAkzkLl3arfNzWS298bFv3HA71TJo6w1778Fu7+OpbYSyfv/meXXvvS2sc2VS2eIz7Usz9mR119vvPWmzpzO5tDke0TrSmk9N7rPdiZFWe9vmSpYs+IdyFDgfvyjGBy6ZU2n+9UcCt5I0mWzKp3SqT1fk4fUVLpa0e96htmFRpFxZV286pj3Y48aR1RlUHIry8pdLWjW9rywn3krGVdnpeVbjSyPf1NUNTCXdDdYUdnV2Vu6Y0dibuk4ZX2Mm5VfbUomrbXGQfY8KNVe4vb64O1lIIqr+IN60ea9dPzzMs4D99Yam9cX6+zZjdTqKy0qlnzfLmYDn/9PKSDu4PG1aNDaTrz6+vCkQFAsb1wvF2S3HjuBp74fhj9tMXl9r7zy6yVcuac7K9dPKxkB9rIiTEy69Z0UZKJ89oyMWRRnveLw/zyUa6W86xvmMdP7m73RK8ZHFTG8HeMTlX5x8+3WrvXVyUe6Z9yPDnLyw1iOjI8bW5tGL0hgxsRJ49PCtXzuV+Yu+0XN/Qg8d7iBsNY0Xbh3dMtiun5tj29eNy+cZPawg6Z8wh9V6O0GWDsH7xwlJ788n5FhPn03umGu4gWFoZF9pvaBnaoQ5cRfhVIS7nbSCLj9XJ1nadejpW8dfPzTPI5Wtn5xmyehohddI30snnhBYrP/WCE9om3dtx3WfpjY0Av4iAVfqNJd7bdr3kmwvg9E/f7sr92rBoUWeMdBdv6Im+/PN7m+z3H2/J9evE7nb8zZnbaG9daNPL1VNzOuDt4uFZRpz3ZfSkupCXDWKm3u4S7ksH6oMrydDqjusPVkOI6sLla3IvcAh4TFxZSyHi+Qh389hxgbgdPfus7ThwPJCjeP3Firr/xDk7/MQztnnXAWsY3v4tDoQf6+bBU0/ZgceftBXrt+bkiOvgfsb4R+322UZ7fn/HTYPnY3OA7P78ZGu9vXuh0eZM7h6x8XpKFRbS27I1m4Iu1m3bY0fOXLSNO/ZZdfXQXN/cOg1hPnT6KVuyan0uDXnR67qtrXbw1AXbfehkIKveD8ag9fDjwYJ8/oUb4Z7nqTPa/0cjn2yMHXn3Hj8bcMOY88xVW9c+LlipGe8DJ5+0x+Yv7iDb8BEjg0yHTj9t85eutJhwb9ixz2588HUOI+MmTe2ET/pRCI/TZ80Nm0f0hg7iXz2y8IZsW/ccCbLvPfqEJTcUzeMmGL/00O8trYc79Bm5mE+th0+FMWMuIL/r3UM2gv/tdnOwdntcV8LGreNs1NmZnertSh3KWzyRLlZX/Ypw06mru2vzWrlf2dF9n8Pnlw21n+2ptx9a6+2TrbXBYn1hYbs1+utddbZ7evuZtVitr61pW9yccH/XWhfcRn6+t97+Yl99J1/sfIS7ua7CftxbH65fHWywrVPa26HPc0ZV2i8O1Af5Pt1WZ397qCEQ76xBdsINYcHSeXTnlEDwIBz+Yn7+6GP2p+922R+/2mH/8sHmQNL+5/ubik7HBSKU/2an/Z/PtgUi9M5dt5Un90+3P3690/74za4QH+6/3mm/ub0+V3+wHP+w2/7XB5uCbOSByCAfFlqecakIbVDX11cFL84AACAASURBVDuNn91JJ5/XSZ7LxzoS00KyUR4CTXnC//vF9iAjhI003GAgdRBvnrlmzR1hWAm5R6dYv5HL3Rf+PupXll5/8/Z6++07G0LfIMTcc7nPM2Qy9P3bXfa/P92Wk8FloTxjypgxdhBBNhCejt83suGyQj9i94s02dA/ZJTy319ZEeqkXn5doDybMa+bsBDhDjIxbt/vth9eXdmhXKy3f6Pu79vGvm5MG6GHjP+/L7YHLDge3S0FIh7G+5udQSY2K23jvyNHgrP09tevrQk659cL9PP/fbkjjCt9StNLPBeunZ5j//uzjmMBBiG3lO8J3tjwhfH+blcY17Z+7bQPnm3b4LG5+8+7eP3v724Msv/9W+3z6Nz+6UEnWPaR5ePnF4c84DhTb3cJ9ztPNtpnl0Z2eklPmzk3EBqIgq85Y1rGGxZMfybMR3BGjBptV25/YjfufGWXbrxjtz781p67/nauLGT79Y+/tytvf2ZYK7FePvHcq7l0yAuE/4XXPrQXXvsg3G/beySXTttOtP/tsxb7+7fH2NY8vyRCdK7c/jRXdtOiavvNO2PCT/jlRryz9HbiwmW79t5PAynGEo2O2JT4mLCxIL3t14lPQ/qytZtz6Weeuxr0TvrNO18H/TOulMdNg7Kvf/Sd3fzgm3DP89LVG0J6Idkg4uTF6oxMjHvb809zJBkiStql6+8E+V776LsOG7qLV28bceAFt5Hr73+Zs3Bj6YaAez8JIa31DcM7xOXDI3gDY+DN9Qax9/qy8Hb+hZuh/OVb7wUsgefZC5a06aVplL30xkehv8+8+lbQ3YUXb+XqHtY4wq6++4Vdv/NVwDr94pch4r19D+88NcI+ea5zvKcXCvHbHvXkrE51FiqjtN4n2Emd9jvCPbmpIi/hHlXf0TKT7GyhZwj3t7vrDGsz+fCjhnx7mWII98FZbVYS3Egg3HsTPwflI9zeBiFtJgk3skG0a6raZDsxt8r+Ko8FJ67LCTfWSsgFPpxYir9/dUWOBAWS8WNrzjqK+wcEa/mS0SFPVjrkDMKIxZUXPYQHn2fu/crnUoJV8h/f2WBOciG0SeJIHVkuJeTBCp4k3FmyQbT/5vW1QU4suPgk//xaG0FMI9zeH8JLR2cGsuguIBfu6s2t74X0BrH9yxurwuUuCv6MlTVuh18fkoSbXygYI/+lABkg3zHhxvKNbmkL8oY8Xq/Ltmtj2weNgZz/2Bos3+RBb4whJI/nQAa/2pErT1whwu3t/OLWmk6EO6m3Q9snhb7s3dLmHkLIZmLhwraNDtZ2+rp6efsvH3ldIyLMpemNj2pjvS1bPLoNb3ctw64X/6UgORfSCLf3lbAnePN6mD9pLiVBb9/tym2c2DzTF8cf5X92dWXYKB3bNSXg4dbZjq5IefV2l3B/+MwIe/9C5xd8GuGO1xm/z0dw5i5ebk+98rqNmzglrKdYZiFbU6Y/Fp53HTgeSJVbZ3FV2XfiXG7txXf8zKWruWcsnFhzaZeTVN461xhcYf7udrPxwWfSQk++xSvXBospBOf0xZdydZFWN7TCzu6ss394u51440vr/bpXYZbeINxsZLC4IiMWVcibywuRdr0NHVoT/NhPPd3W95aJk8MYuB7ZTGE13tJ6KFeeevK5lGTJRtlCLiXIhnWbfFiUn37lDTv97CvhGZcR8LF2a2t45vsBNmTuUpJGuL3PcZgPj/Tx1DMvW01tm4EOCz969LKF8EYeMLR939GQH8zyS4//+sOvDWxe3G990Yo1oS/0gbIQc/o2c+7C8Mw48OuDzw2XgfC1J4bZF5c7b4DjPPH9o8OqDN/t4TvGW/OL86xx14Rcn+J8ui89sc6n4z4j3Gl+3LiadMWlJF8neiMeUusWa+pbOe5R++uD7f7gxRDuGSPbF+k7m2vt1NyOP1N2l3DfWFsTfMC9n/XVFTZ7VIVV3H1RenwydMKNWwDWU17KuE/EVjpIBoTMX/j+sdu2tS0hLisdCzW+x14en13Inz8T5iPcpGEhhMhgFefCqpokCt0l3FmyQbjjtr67ssL+9i4BzyLcuDzw07/3EysnBOjIXReULL15Oay0hT6SSyOOLhs+xV7P//t8ewfCzeYB33PSIXCQMc+blC0pO8TR9UCZtDHtLuFO6o36OVEk/viSjQCuJODhY749+LHVHI/kz0scMwg39VJX7FKF9Rx/bOpN6iU5F7IId0/wRvtc+Qg3emNu4NLE5W41jjfKskECB2zifvt222bL6yXMq7cSE27WJYgGP5/vOXI6uBDEpGP5ui2BhGA5hLzg+hD/xI/18dYH3wQ/bMi5kxXqXTG7yv7zixb74OkRqUTb10Q+7IRQQuqamtNPbagZWmFvnW0M9WH59rL3MiykNwj32UvXcnLiGoEl2eWF1G7ffyz3fOLJ9vxO/MaOm5hL51eHpJtQPsJNG4VkI70Q4Q4bn2dfCe3RJtZgSLfXCz5wzfC+vPLWp71GuKlz+drNYQMGHsFErLdCeKMsVnms47hP4bYDaXY5cd/BIk+fwnXXrcYJOb8g8IsBv+RA9Ndu2ZVq3aa+rhLuqtFDrfnSHBtzeW44naQOo0UGR1B635LvPiPc+fy4u0O4373zoaVdPQEPhPvV1e1/moNPd1cJd+y3/d6mml4j3LfW1qT6fmf11wk3P91DqvlgMryQExZsXuT+YsZPNCY4gYQUSOcUD0iCl+cUh2IJN1ZL3E3YAOCOwYWFOybB1Nt9wl1YNgj3jSfarYBsHJxoOqmNXUq8j4QQoPgDVCzknQh3Ab15XT0h3CuXtlt9cYlxCzc++LjYYKVGxj9+vSO4+3ibyTFNyg7h5qNIz582pj0h3LHevA0P8WdH9t99sDngASt9jEfy5SWORRLu+BuFf35/UyCv1JvUS3IuZBPu7uPN+1+IcDM3cCOJr+QvIqShL1xKvE4P8+rt7ksZ0vrRxd63cK/dsjtYKCEqnBQCsYoJN+sYp4c8e/W23bjzdUh74rkrObLAx3CQIE5HwRWAsu5SMm5UhX314kj7wxct9lc3R9m+1e0+zPH6COHGhziOi+83Lqy2b15uCvV890qTTW3p6NYX5+2r+yy9Qbhj1xvyx8QRwu16Qmb8152gO+GONx/oH7/ruH/5CHeWbNRRkHDfdakAD37hy025NNliH+6eWriPnb8UcPTMlTdD2/Qx1lshvCEf1mp+JeHXBCzvbAZnL2j7MBTCzcbO++ThjNnzc3rFLefJF28FYg6WX37z49yvFLHu3z6X7uIV58l3j3V71Dn5cOfTz72KLynhrq6uDhbsmpoaSyPcxEO4yXevFODtQrjf2tBOuPkwEb9pT/9iR12HI/2urKoxLtLdh3tBc/sHm59tr7PjczpbuJ/N41vo7aS5lFxdXWOv3G2LfFi3ec76wt4JNwQGMokljwuS5x/iZZGMrHR8Yvkwz1/q4Yi+73blnolvs3B3jCOeDw4h+/7BG3H4RacRbj4W8zbSwjSXkizZChFuyCzExd0LaPMf3l4fPkTjHqIeu864NXTf1rbjC7P05n3oDuF24vTqXZ/tLWtbAkl1wo3FHCunjze/cNAXJ+jIhouRfwjpxPLgtjbZIdz01WUMJPj7jr9aOOGmrOdLhmkuJYx5rDc+6Purm6tzFmzGDEux1xVOBsln4U4coehlCNN+GYCcogd3+yEf/vd+VGbWmDFn2Li6rzsWZXCHWwx19QRvLns+ws0Rj/EvU8jAB8Z8dOxl+XCXuf7NK8vDpjd5xKTjJhnva8/Nx4fZL2+Nzq15Hj9p6sxAcmfNW5RLe+rl18OHYZ6HkJ/wj5+/lMvjafgK8zO9P7vLgFuq8b11H1Z+osfqCJHxD+wgQH5PvvOXb4Qj4bw+wjXzqnPEmz6snd/xnQLJ4UO5uAz3nALx3ZWmYNWGaG/MY9nGrQb3gGR5f8YNJiZVHk+I6wJWfE50ieOz7rP01hPCjayQvfgjSHzk9xw51UFGyCgfVCZlzZKN/DnCvWhZp/L4MW/YvjcXj9+3W9vBBbK5yxF1QYjdpYQPOnn2X0FGNI0K5JUxiOXMh0fahhh73k072+rz5yy80S93f8J3HHeUg49fCPXhahL7lyPj5Gmzcu4rYAF5vS1kpq98QOpxHv7s1abwi4s/dyUcvrnFRp2XD3dXdNYXeUtKuOnAzJkzbcKECVZRUdGBdPM8ceJEmzWr66CYM2++3X73/ZyVm3vieqIwCPffHmwIftdYt/lwksvrhPR+s6vO1k6otF3TH7Vf7K/PEXAn3O9srLVlYysD0eaYwPUT2wk49dAGdeyfWRVOQSEv8RwDyKkoXH++rz7k4x63FtIh7pB/fMJXjHvUPthca59vr8vJ5jImwxzh/n537qMyXs64GPzFjVXhRZ1FMrLSISuQO4gURA8Cw0kLTgIIj+NT+mNrsCRCWngmHh9krOGcsIBF2X8mTxJuPhLjoz4IJeWnz2o7RYVjAHkOROibncGHlnv/o5gs2QoRbsgo5ApXHFwq3n2m7WQMfLWRnZMs6NOXLy6z8/unh/O6IbHuGpGlN9dPPsJNefrCCS9sSryf/uc+kFLIFW4t1MEvBU642Vzxwam3wQeJ5PF06kZ28uHv+4uba8I4OHmGcFP39SfmGdZtfmHg8voI8bGmjh+vrczJxsd5XC4r7hqMnT9TDlLveuNkDnzmwYB/KIvrC7/CoN8dG8aHXxzIH7uUQDIpA1GnbvybXbZCesN1Bj3w0S5jFj4s/LHV/CSVrDFzlxSOWeS7g6C373fnXFR6gjeX/4PnFgfcsaGjb27BZiOHHnCzgTBzygpj5L/AsJkCA2yuIOPonbkYn9+eV293Ldy7VgwNFt4Nif8BwP8XgoNFEOLIyQyQhFUbt3dYg9p8ij8N/q2QIj8Vg3OwcQmYv3RFOI3i7N1jBZ1wY73mZ/g1m3fZktXrw0/8+ME6ocIyzkd8fPDHCSX8HI/lMLne8ezE+6XD7e6AkDk2CPjKJss8s7feChFtz48LAX2ek0IesXiSxseBLrOXI8RnmHRO+4jjs+6z9NYTws0mhw/30MvKDdvC6S/IiP5juXD1uHTj3eA6wZg2jR4b0rNkow7IJR8+4rJBWfybvW7Gj18s8K1nM4SV9+RTL4R0fNIZfzZpi1asDb9uIJsTbreAY6kGE/wawi8fTti9jXx4pC0szDPmLAi+13yIG1u4C+ENssyHpLjnLF613tZv2xP06BuVeUtWhLFm0whWcBth8+gfHDN/eIaY03fK0TfKudyEyx+rCufhH1rXzkHi9Kx7LNxNj+tYwCw99XV6yQk3HRo9erS1tLTYwIEDA+km5Lm5ubkDyPq683F7buH+6Y66cELJz/fU2+Lojx/G1VcEosspIlwQcP4ZMvTv7jncLy5vI+2cIpJmgZ44rMLw7cZVBUJ+a22bhfzgY1Xhmbj4gsBTPx9L4l9Ou6R/uaPOYmt63I/43gl3kgBjLYbU8JJPkozw4eKPrYbVtJh0XuhY9nj5Qwg4m9jLOomA8IVzmzmB4cfW3IeKfGj5d2+tC3HE87EcH2BizfOyhBAiPwGFfF4/fr48Jy/IBuWyZEsSbogUffG2Ie6Q3VD/D7tzZMbT8aWFZJOOpfPpu2Sc9Cy9eh0QwLhcHJ/sF8++WaFvWDTxceZDQ8bTCTU6JN7rIuTPdfyD0CDblztyZ4tDXtGl54dwMxZ8rBn69vWOQMw93cPwa8nXd/XzY6tBSN3y3Un2n7Xm6qdcTm9sBKLj7DauGRtOjQnlf9YazhDn3sfc2+YIPR8bQo9Hn53ajvTGB8SMVcjz3S6D4HrZYsaMP9zJyf71znCkpZfvKd6oh40H7jSMCTLGcyHg7fu2ePoZp+GOxXghA/VgxUfOT57v+GdQqXq7S7j5xexnV5vC0YDblna0EOPzCimGHECiOE4tSS6nzJgdTh8hnXxu1Z4+e344iYI4yApEiXsn3FgJIXXEcbV9vNd25jLrGcTECS/pTt7jtS55H/89NhZGZEoj6fU17d/dJOuInyFl1OEfv8VpE6dMDyevxB8sxum4XyC3f7AYpxW6z9JbZ8K9K5yA4XUmXUrQO5ZpT2fz4mOKWwTHMnqahxBwCKqPjY9ZlmxeHjceLMqUJ/R4sIL13OtlQxUfjwdBRybS2eih2/iDTv5Qx9PxB+dDWq/bw3x45IhJylA3myTGJZYtC29Yx9kQ5GS/eruDvzm+25xc4vX7B5bIxeaVDQikm3Tmw8kLlzvIzob3N2+PCS5SVVXd8zFu3D3Rmp+ZbRV3OYrrRGH39NlbeusTwl1VVWXjxo2zpqamQLgJx48fb8T3Vkd6Wg+E2324OWUkn7sGp5g40U5rkzQ/6SQtvSdx1Muf4xRbhxNuJwSlDDlL2U+16Go7/NSNZbSr5YrN3xPZ2CxgzeWEl7T2cIcppexpbXocFluucErJd7sCyfe0QmFMLJGdOuL8sQ83xwn6kX1xnp7e0yZ6zVc3Hzb6+ds9bStZHgswG8t8bSfzJ5+RnV8aqCeZxnNP8JZWXxwHDtGbuwPFad2+jz6sGjuyIpBuPkQ8uqGjdY2f0TlNgX8QLHYNivNhgeTn+jguvsefmNMdkkSePMThkoG1Oi5T7D2uKO4GUGyZOB99dutuHO/3WD7dLcbj4pAPACFbcVyx91l6K7aetHzolQ/5uqubnsoWjpe8azVPyoeFvJAbDlZ6PlhMw0uyruQzY0FZd1VKpmfhjXLMBT8hJlkevJCeb8wpxwYj2f7ulUODe9Nf3BhlE0cX/65Ptl87fbiNvbnIWq4vsoa1bb9KJPPoue/Jd58Qbga2trY2uJBAvHEl4bmcBjwm3OUkV09k6UvC3e2XffShm+p4NJXApemFkz1iSy5+0ZDItLzJuJhwJ9N4jgl3Wrriih+nfqGriHCz3mBs2LN6qC27e8xpT9Ygle37l7p03n91vmBqle1b072NWXLcq5prrWHFaBs6of1btGQePfctVvqMcDOwI0aMsNmzZ4ew3AaaP5cpxk2j3OQuJI8I931GjKLNCSdt4LvMhZtEV35d4ENE90VPI4R7Nk/IfQiYlq64+wxXCcJdaE1RWt++oKVv6VsYuH8w0KeEG+B05xhAAa57gBPhvs+IUUS4RXo1tr2GARHusvq1Ve+77r3vpDfprdwxIMJ9v79sRNKKcrPoNfIifUvf/Q0D9/saqP5pQyEMCANlgAER7jIYhJLuyvrby1/yirAKA32Lgft9DVT/RLaEAWGgDDDwZ4MrqqwvL1xK0v4E517EDW6uLBtZ7kX/1eZDGv+HpAPNA2FAGBAGhAFhoNQYEOEW4RDpFAaEAWFAGBAGhAFhQBgoIQZEuEuo3FLvllS/duTCgDAgDAgDwoAwIAyUPwZEuEW4taMVBoQBYUAYEAaEAWFAGCghBkS4S6jcnuw4KysrbeDAgangHzBggJH+8MMPp6b3pF2VLf9dssZIYyQMCAPCgDAgDPQvDIhwlyHhrq+vt2PHjtmoUaNSCfWMGTPs0KFDNmjQoJA+cuTIcL45k4+46dOnp17Tpk3L1cfJKPnyxfHUHU/qyZMn26JFi3Jx/HPo6tWrc89xXu6XLVtm9Mfj6+rqDPl53rNnTy7e0z3kT5JmzpyZ9xo7dmyHsvPnz7chQ4bYkiVLrKWlxUjnYnPS2tqa05XXr7B/LVQaL42XMCAMCAPCQH/GgAh3GRLuxYsXFySj27dvt5UrV+YIZ1NTkx04cCCQzaqqKjt8+LBt3rw5XNu2bcvdHz16NGcVh9CSb8eOHbkLkr9z587c8/79+w1ZYoBDxiHRHrd06VLjwhrvFyTX0yl/8OBBGz58eIiDrG/ZssUmTZpkR44cCSH3acSefMlr7969YTOyfPnyXBu0hQzz5s2zVatWGZsCSDZ1QvbRjcujUAu2MCAMCAPCgDAgDPQ1BkS4y4xwQ1Yhulhs08DQ0NCQav2GWGIxhmRCNnE3weIL2YQI84xV3N1QINwQ97gNCDiWb4/jCEcn3BD5KVOmBEK7adOmcE/eXbt2BXkg635Rj9dBuHDhQoP4V1RUBPJNGYi9E3zuyeNlkDsm7cRXV1cbJJs+QKyx5A8ePDiUQQ7Kb9y4MfRp7dq1IcTSPXHixNAOpN8v+u5tKdSiKwwIA8KAMCAMCAOlxoAId5kRblw0sEQPHTo0lRRCgCHUacCAWEOMSYeAOgEmdDeUmHCTb/To0bkLizPte9yKFStyhBv3Foixk1bucfmA0EP2a2trw4XLCKQ4KR8+51OnTrX169fn0mgvmY9nrNrIALF2Ur1169ZQtqamJsgEkSYf+SHj1OvWbwg/z7Nnzw55cXlpbm4OhHzBggVhI5LWruK04AoDwoAwIAwIA8JAKTAgwl1mhBvrLBbktMF26zdE1NOxQkNwufBZdsINUYW0Q4ixLGMRJk9MuCH2pPsFMfd7QoirW7i9PYgvRBdZkBMXEWRwlxG3pJMfEu7+4FjmyQtRx9rNRXt+TwjJphz14yYDacY1ho0E7VIHGwks5GwAnHBTho0ChHvDhg1hw4GrDJbsffv25XzMScvnF+/9U6iFVhgQBoQBYUAYEAZ6GwMi3GVEuCHGWH3xQU4b6PHjx3eyfmPdhahCPiGdTrghw7GFG9/mJOHuiksJ8mDJ9jqxfmNBpn2s3pB7yDZEnGfyQ24hzLi6kBc5cUvJd7lVn75AliHalJ81a1Zws5k7d24g07RJuhNuXEfoGySdfqInrO/kh3BDxJEHos4mIE23itPiKgwIA8KAMCAMCAOlwoAIdxkRbkgixNFPH0kO+rp16/Jav0mLCTfEMia2EPEk4cbaDHn1C7KPFdmfsSbHFm5cM/CT5oNNyCvEFjcR4sjHPbJjHY9lxyIP4SaOOiHByQuXDy/jhJtn4t3ajnx+wklMuLHm84zs1Atxxw+cspzM4j7nbATcwu9tKdTiKgwIA8KAMCAMCAOlxoAIdxkRbtwgsBynDXqW9TtJuCdMmBAsu1iIIawQ0phwY212a3Wh0Ak37ipYqiG8nFICuYXoQtoh3hBq2oLo8tFn3IeYcFOWo/v82D5C3EXYLHgZCDfWcVxQcGvhFBPyECIDVuzYpQR3lrQ+ODlnIwDZRkfehkItrsKAMCAMCAPCgDDQVxgQ4S4Twu2kEbeItMHHrQLSWMj6zYeEEFhIMITbyTJ+4UnC7R8wQpr9woKMddufIcpeB9Z36o+PBcT1BaJLOYgwhJ52uI/7kCTc+Hy7FZ0Q3+ok4Ya881Enp67QZyzqkHws9dxTxl1KsFrj7kL7hHxY6ZsM5KA/yInFP5ZL91pohQFhQBgQBoQBYaAvMCDCXSaEG6vv7t278xJCSHTy7OkYIFhvsSxDQnHxgHDjXsHHiBD1JOHGSpw8ehBrcr5jAZ3ox4SbE0kg4e57jbsIVmgIscuGHzYfP7rlnvOy06zRScJNvRBl4smPbFj5qRcZcRdxwk0criMQ/zVr1oQNh7dHGieTQMaRy/vh8inUQisMCAPCgDAgDAgDpcaACHcZEG5IKRZZPvJLG/DGxsZAOpN/DhPn5cNASDR+1hBpyGnstuEuKViDsRJDYP1kEa/HCTcEmjSIMm4dnk4YE+443u+xXsenrGBdZ7OAtZp7ZKJuLNEQdkIs19w72YdI0w82IRB0NhP4jfPsF+kx4cZnnTjIOeQa9xw+pnS/eNpBLizjEHmXV6EWWWFAGBAGhAFhQBgoNQZEuMuAcGON5og+3CvSBhzSWcj6TRksvk7c3eLsdVEeK7f7VuMKkubPDDHGBxuLsBNX6vV6CPMRbsg5Fmb64aes4GdNm5B9SC7+28iRZuEmzv96HiKNfFj0812Qdyfc7toCocY3nbYg/rQH+YbkIztycDJLvo1N3E/da/EVBoQBYUAYEAaEgd7CgAh3GRBu/LadpKYNLO4VkNe0tGQcfzCTjIOA00ac1l3XCqzjaUfrUTeWakht3D7+1PEz9xwdCCmG3GPV9ot40ulrlhWaMq4TNhr5Nitxn6mberPqTsqrZy24woAwIAwIA8KAMNATDIhwlwHh7skAqqwWAGFAGBAGhAFhQBgQBsobAyLcItydLNCatOU9aTU+Gh9hQBgQBoQBYaB/YUCEW4RbhFsYEAaEAWFAGBAGhAFhoIQYEOEuoXK1++xfu0+Nl8ZLGBAGhAFhQBgQBkqBARFuEW7taIUBYUAYEAaEAWFAGBAGSogBEe4SKrcUOyTVqZ23MCAMCAPCgDAgDAgD/QsDItwi3NrRCgPCgDAgDAgDwoAwIAyUEAMi3CVUrnaf/Wv3qfHSeAkDwoAwIAwIA8JAKTAgwi3C3WlHO6ZxYC5u0MCHbPSwtj+kKQUAVacWNmFAGBAGhAFhQBi43zEgwn0fEe6pDQNtyeif5MhyV8E7afRP7OOLjfarN9r/1bKmaoD9x2ct9taZBmsYKuLdVZ0qv14iwoAwIAwIA8KAMCDCXUaEe9ukITZjWGfCfGjmEHtibse/TE+bvJ9uq7FfHWywIQO7Dmys2r95pzmQ7R3L2v8eHgv36W3V9s93xtgPV0Yaz2ltK056EQaEAWFAGBAGhAFhIB0DItxlRLg/3lJj+6cP6URon130qF1ZUdUpPgnq9S2DbPfUzuWT+dKe3z7bYP/wdrONrEu3Ys+bPNj+7dMWe2J7daYcafUrLn0CSi/SizAgDAgDwoAwcP9jQIS7DAj3lomD7eCMIfb97jq7ubo63PM8pqaN/Drh3jBusJ2bX2mbxg+2AQ+3gxM3EvJzUVdy4lYMeth2TRli5+ZV2pFZj9i0hnYfbfIOHvSQ/e6jMZlk+u1zDfbj1aZO9VMHsp2eU9Et63pSXj23j610IV0IA8KAMCAMCAP9HwMi3GVAuN/eUG0/31Nnf3uwwf5qf32453nRqEGB3EK4ef52d53d2VRjf3uooYOLyYX5lSH9L/fV2xfbazsR4ptrqu2vD9TbR1tqBf98YAAAIABJREFU7NtdtfaLA/U2pb7dkj1+5E/sP79osQVTOpP1eJKf2Fxl//T+mE71k+eX++vt14cabPFdmeNyuu//C4XGUGMoDAgDwoAwIAx0HwMi3GVAuB3AhVxKvt5VaxV3/afPz6+0L3d0JtZYsdMI98/31lvrtDZXEyzjR2c9YnNGtPuKT28ZFAj35IwPLvesqrTffZhOuPdNf8SeWVhpQwc/nErIvY8Kuz9ZpTvpThgQBoQBYUAY6J8YEOHuJ4T71VXtPtz4amPxTk66fIQbqzjW8QsLKo0PM4dXtFu3qcMJN6eUJOuMn/euzE+443y675+LgcZN4yYMCAPCgDAgDJQGAyLc/YRwxx9Nru0i4R5bM8AuL3s0WMU5xeQX++uNIwR9Uk0b22bhnjm+MOE+vLYqnFbi5RSWZlJKr9KrMCAMCAPCgDBwf2FAhLvMCPeBGZ1PGfGPJn3ydZVw4+bhH1k2Vg4w3FP4wNHrq68eYH/4vMV2LW8/DtDT4vClw3X2N9EZ3XHauNoBwX/70UFyKYn1ovv7a8HUeGo8hQFhQBgQBrqDARHuMiLct9dX2weba4LbB6eNuD90FuHmhBDyY8X+obUu3POM6wgEmI8xLy561OY3DQqnifz53no7PLMjsf/za0329UuNORKeBNPQygHhnO7XTjWk5nlzfXWwnNcO6eiukqxHz1qohAFhQBgQBoQBYeBBw4AIdxkR7kVNg+yn22vDKSSc+DHx7pnYaYT7Z63tPtx8FEn+5LVgZJuLCB80cvoJ6Zxw8s6GoVb3SEdivHVxpf3+87Z/lBx+9zhCnwz4dn/78gj7l4/GWJqfN3+0g5vK5aWPppJxr0ehFlhhQBgQBoQBYUAYeBAxIMJdRoS7lAAcNOAha6wYYJzJna+doxur7V8/aengNoJlGyL+2/eabcWsjlZxrwfLOWR+esq/ZHoehVpghQFhQBgQBoQBYeBBxYAI9wNCuIsF+ISmn9jxTe0novCnOPy7ZHXiZJO4vpOzK8L54HGc7rWoCgPCgDAgDAgDwoAw0IYBEW4R7rwW72InCVbzQpbzYutRPi3MwoAwIAwIA8KAMHA/YkCEW4S7x4T7fpwY6pMWfGFAGBAGhAFhQBjoLQyIcItwi3ALA8KAMCAMCAPCgDAgDJQQAyLcJVRub+2KVI922MKAMCAMCAPCgDAgDPRfDIhwi3BrRysMCAPCgDAgDAgDwoAwUEIMiHCXULnaifbfnajGTmMnDAgDwoAwIAwIA72FARFuEW7taIUBYUAYEAaEAWFAGBAGSogBEe4SKre3dkWqRztsYUAYEAaEAWFAGBAG+i8GRLjLlHBXVlbawIEDU3ebAwYMMNIffjj/v0ZqUvbfSamx09gJA8KAMCAMCAP3FwZEuMuQcNfX19uxY8ds1KhRqYR7xowZdujQIRs0aFBInzt3rjU0NHTKu23bNhs5cmSneJ/EU6ZMMerimjRpUsg3fvz4XBzxaaS+pqYm5NmwYYM98sgjtnbt2iDrokWLrLGxMbW9VatWWUtLiy1YsMAmT54c6q2oqDC/qMflIhw7dqytWbOmQ9zKlStt4sSJHeLIizz0JXmhP9qKr1inVVVVNnPmzMyLfEnZpk2bFuLY/Bw8eNAIyTNnzpzQzzi/7u+vRVPjqfEUBoQBYUAY6CoGRLjLkHAvXrzY9uzZ04HkxQO7fft2g3x63IoVK+zw4cOdiB4EOM7n+T3cv3+/bdmyxSDmra2toT6eqX/z5s129OjRHKnH2k4+iD6bgX379tmyZcuCpX3jxo02btw4o70jR44E4uttEGKNJ37o0KHW3NwcCCr5qccv0uMyEHMuj4P4Iy+bEY/zkE3Cjh077MCBA6Ef1MXzwoULbefOnbkLnbJJ8HKQb+KWLFlimzZtCv3jnn7Sf+5Jj0k6ZekHskDEIdr0gRDZ0E9tbW2uDW9LoRZnYUAYEAaEAWHgwcWACHeZEW6IG2Ru/vz5qaQNSzYEL0kCsdTu3r3bpk+fbhBgLogz5NOfCWMySDtYmKurqzsQ7hEjRoS2IfFuRWeRwOINUYaQQnJ94Vi3bl3O8owFeteuXTmLL3nYQJAHmWfNmhWILMQb4sqFTDHhxhqObLSD9Xz48OE2evTo0G+s3n6tXr06JwPtUM5JtMsWh7SZJNy0Q33oCrm5J+SZe9Jd15B++sdFf+bNmxd+GWA8+IWADQLyep60XwdieXT/4C68GnuNvTAgDAgDDxYGRLjLjHBDaLEsQ0TTJiPk1a3RpA8ZMsRmz54dCC7kGFIJWedavnx5sPr6M2HsHtEVwo31FjLPBSHFqu7PkFPIrj9DzOvq6oL8lINM49qCa0eaxR3reUy4uXcLN33FFWX9+vVh40D//YLoooPBgwcHnfGM7jzExSTWYUy42diwafC6CLFoUzaO454xQUbK0He/9u7dm2sPXXq8hyLcD9ZiGmNN9xp7YUAYEAaEgRgDItxlRrixkOLeEA+S37v1G8uqx+G/jNsDZWJrNOlYhiF/njcZdoVwQ06xOHPhswwR9mfcS7j8mZD8yAMZh8SygegK4XayCtHGVYU2scbHfaBeniHckF/I8dSpU23r1q1hs+F+1tTFhV+4W7hxcyFffOF+glU/jvN78sdtQ8LRO78sIAe65BcESH5yHOJyutcCLAwIA8KAMCAMPHgYEOEuI8INocS6CzFNm4yQ2DTrN2QQsgj5i8vlI9zUA0GnLXy2ubgnDmILSeYeIokv84QJEzrUC7GkDm8LNxEs3jxzD7HlHos6dUNGu0q4yY+rC21hMadvWPK9TQh0TLjZAEDMsaRTBgs5hBu9kM8vJ9xeD7r2jQIuOfhg+zNhbCWnTeSgTjYYkG42QdTNLw2kQcLxJefjSW9D4YO3sGrMNebCgDAgDAgDMQZEuMuIcEPY4tNH4oHiHr9hiHAynmdO+YAQ4g9NPs+LxdafcZkgLyeJQAhpC2LKx4VOEiGMfAxJOiQcazrEPW4TQksZLMqQXAg2lmCs7bTnPuD4PrOJwPrcVcLtBJkQlxKvx637uHiw+UAuLNwQbsg9+SDDfDTphJsNA33min3YKUs/KcdJL8mLzQZxcd/xG4f4uxWbEJ1BvMlHiD93TNTj8rrXAiwMCAPCgDAgDDx4GBDhLiPCDUl0S3FyMmZZv/moEOKIj7b7P1MXRNqfIfRxvRBuyGr80STWbSfY8UeTkGj8r5ERIs4F8YbMYmEnL2XT5O8O4UYuSDUWaQg3ciMD7TQ1NQXCiwzEk5e+uPXaXUeccKedbOJ6gHAjN5uR5EV8TLixYmPBjy82HcgRx/k9+b0dhQ/e4qox15gLA8KAMCAMOAZEuMuEcENyseZCJn1w4hASh7uHW1bjNO7x/Xbrr6flcykhHZLqhDUm3E6OyRMTbj44dOsuLhWxmwl14TZCPPJhRSbO5fA6u+vD7YSb+iDIkGAs+ujD+4KsWNnZdHDRZhrhxj0l1jH1Udb90OOQ+Jhws7FgkxFfbol3H+44jU2S60ChFl1hQBgQBoQBYeDBxYAId5kQbqyr+BDnm4yQWU4dSUvHXQNyGJ9AQr5ChBuLONZq8jnhhsRSD64pxHOfRvAhle7DjZsGH2a67zfl6AsbBO65ukO4scZDjul3TLi9TmSGHPPshB+C7RfW7jTCzaYhdvdwl5L4JBe/d1cTbzMO0RHWbfrNMYCEkHN3LYnz6v7BXWA19hp7YUAYEAaEATAgwl0GhBvXCVw/YmtqPEEhtVhS8/1rJD7XfiY1RBhLMhf1QUr9mdDdKygDYYQ4EocPNOmQTOLcAh4TbuTk4mNCLNycIIJcbAQg69QB2SZ0txT6kUW4Ic9ubSc/98iBDzVENibctI9MEGXfMCArLiUcTegXRN0JNz7VWN05wxx/a3zLIca4fPCrAH7x7gYSh8RDvsnnRBortx+NyJj5Gd2MDXX7WeiybmuBjeew7oUHYUAYEAYebAyIcJcB4Ya88gEgxDNtQi5dujSv9RsCCil1NwmIKoQ33wWppg2IOCQUsgxphtz6WdoQceJwk3BrN2X4UJJ4CDHkFSu0fyBJOsQdco0McT8KEW7IO/XhL+1lIK3eLtbj+ENHPtJEBvTlPukQbnRAml/UC+HG75z8fkHS0Rn1elwxIXpztx/6g188mwyXmdA3AqQjX7zpiPPp/sFedDX+Gn9hQBgQBh48DIhwlwHhhiw7EU6bhJBDt6SmpSeJX1qeZByWWuIoy5/UQBax5EJGPQ4iG5fjmZNICrUHUXZrsJfFQk29uLy4hd3TqA9iGlvSPS0tJB8uNLEMtBkTf8qxeXEXG8pwIUNanV2JK5ZEF5uvK20r74O3QGvMNebCgDAgDNwfGBDhLgPCrcl0f0wmjaPGURgQBoQBYUAYEAbSMCDCLcLdY6tvGrAUpwVHGBAGhAFhQBgQBoSBNgyIcItwi3ALA8KAMCAMCAPCgDAgDJQQAyLcJVSudnXa2QsDwoAwIAwIA8KAMCAMiHCLcGtHKwwIA8KAMCAMCAPCgDBQQgyIcJdQudrRakcrDAgDwoAwIAwIA8KAMCDCLcKtHa0wIAwIA8KAMCAMCAPCQAkxIMJdQuVqR6sdrTAgDAgDwoAwIAwIA8KACLcId1ntaEfVDygrebRI9u0iOWjgQzZ6mDAg3PUt7qRv6VsYEAZKjQER7geIcC9Ztd6mzZpbloS2umKAXTlaa//6SUtZylfqiaj62xb7mqoB9h+ftdhbZxqsYaiIt3AhEiAMCAPCwP2BARHuB4Rwjxg11t745Ad79trtbhHa9dv32az5i7tVNmuxGDDgIfvqxRH2Pz8cY2d3Di1JG1ky5EtfuHyNrVi/rdsy9ZbeWg+fsr3Hz+bkGD9lup29dM2u3P7ULt9639ZubQ1pzeMm2qXr7+SuHfuP58rk62M5xWPhPr2t2v75zhj74cpI47mc5JMsGg9hQBgQBoSB7mBAhPsBIdwDBg60HQdO2OJV67tFYJ6/+Z5t23e0W2WzgHlkQ1Wwai6fOaQk9We1Xyj98BPP2Nnnr3Vbrt7S24knL9upZ14OcjCWL7z2gb385se258hpO/Pc1bCZmrNombGxOnr22XCRfvjMxW7LXkgvpU6bN3mw/dunLfbE9up+KX+p9aP69cIXBoQBYaB/YUCEuwwId3Vtne04cNymzJhj+06cM6yZWDDjyTRp+mzbe+yMHTx1wZas3tAhjXyrN+20g6eesjVbdtuilWsN9xEvv2HH/lA/bSxYtjoX7+lYRSHjh04/bVv3HLXmseNzedZt2xvKXnn7Mzv7/PVcPRMmT8vlKSTbohVrgzxrt+xuk2/zToMwetuEX74wwj6+2NghztOHjWiybXuPGcQX2Wrq6nP5Jk+bZZt2HbTHFiwNdZOvoXFkLp220YPrBivwoEGDc+m0MXfxctt79AlrPfpE0L+3i57Q1zOvvmWXb93J9Xv+0lW58oVk66nekGPN5l2hX6s27rDjTz6fI9yjWybkCLbL+8JrHwbc+DMhRDwf4S4kO2X5NQO9gDf6UjW0Jtdvxm/5uq22/+R523f8bCc8Dn6kIpQBT+Bq5OiObkKF8BbL//a5BvvxalOu3Thtw7jBdnpOhQ2RBTxVP7GudN+/XsoaL42XMHB/YkCEuwwI96ix4wKBuvruF3bx1dv26juf2407X9mY8ZPCy3T67Pl284Nv7KU3PrKLV2+HvBAZn5QQdNxFIIa4GFDP40+/lEt/7vrbdvW9n9qtD7+14+efz8VTvqqmNrR3/f0v7dKNd40QyyjxpD9z5c1Q9vWPvgsyUA8XrhakZ8l27Pwlu/beT4Ncz157O8gJEXPZCf/urWY7n+JKUlc/3F5561O7fucrow/IH7vErNm8s02md7/IpaMfr5u2kRV9YmlGR5BET9+8+1CIe+WtT4LOXvvoO5u7eEVI33/yyVAWvRPv/YaYUz5Ltp7qDfeRtjF9P+iODY9buCdOmRHSIN7el+EjR1l9Q8dNSz7CnSU7ZPv1j78P7YIJ9H7q2VdybeGmgmxY2cEc92x8XBbkpMzTr7wRdA8mkY/0LLx5HYQnNlfZP70/JldvnPbL/fX260MNtnjUoNT0OK/u78+Xl8ZV4yoMCAP9CQMi3GVEuCGAgAdyAsn0Z4gjRHPQkDaXC9wIIDEONEjPiQuXw3Nl9VDD2hkTbs93+uLLnQg3hBnChHWdfE3NLQbZZBPg5QjzuUZkyUY6pNkJPBZRCHBc92/eabZjG6s6xJE+a95iu/DSazlZsFgj67iJU0NeCDfPU2e2fQi6fN2W8OwbFW+bXxCoDys5mwlvG8LoequorDI2BE5qPU8+l5Is2bx8d/WGnEfPPRdkZUxffP2jnGxphNvbi8N8hDtL9q17j4Qx8l8DZi9cGn4B8LrPXLpqTzx3JadHfr1wH3Lww5gsXb0ppPOLw7X3vjR+ZaF8sXgj755Vlfa7D9MJ977pj9gzCytt6OCHc3K4fAr1EhYGhAFhQBgoNwyIcJcR4XbSC0ggguu37w1kAoKD5RZLNteJCy8Eq6uDCevnum17csTj5FMvFE24IfdYcbFk4s6ycsO2HDn2+gnzEccs2SC9MTmDvOGmEdedj3CTB4KGK8nOgyfDR4Px5gDCjeXZ6/IPQ12PbW2/mkvHNSPOjzWfOC9/4PEn7cLLr+eeic9HuLNk8zq7qzdkW7lhe04WxtQ3Az0l3Fmy4+ePns9dvh7wtmDZqg5uQOgJzCAT5Nz17fVSFgu945UNF/ekF4s38u5dmZ9wk65LOhAGhAFhQBjoLxgQ4S6DF7e7lEycNiuVRHAaBaTl/As3c1f8IV8b4W4j5wDv5FMvFk24yY97yPkXbgSrJmQJ1xW3CjuQ8xHHLNkgvbE7gtcXh//wdrM9vrXzx3EQTlwbsDw/+eIte+rl1wMRdIIH4Y6t5Y1NozukJ9umviThxhfZZcH6Thv+TJiPcGfJ5nV0V28Q7li2+KPJnhLuYmTn1xU2Rrg2gQl+HfE+4UcP6eZ0FFxHSHeXErdgs3GJ8RpvbIrBW9D92qpwWom3q1AvVmFAGBAGhIH+igER7n5AuLEQ89Gcgwz3DD488+fnb76bI9gQZQhzsS4lfOBWWzcsVxcnXUCg3Ee7vY33bPv+Y7l8Hp8lW5L0erk4/MsbTXbjZPvHkJ52+rkrhgXdn3EVQbbeItyQdXd1oI1j554LJNHbI2wj3NdzMnhalmyeD8LdHb3hh8+Rgl7PE8+9mrNwt0yYHPTgrjTkwfUmeQQgLiVHzj6bq8PrypIdFxZ3AcKthF8X2Pg8UlEZ6oJw+z352Pzx7QH1MzaMUfzhLfeOsWLxRl0vHa6zv3mjzffbZfdwXO2A4L/96CC5lLhOFIqICAPCgDBQvhgQ4e4HhHvnwRPB0ohl8rH5i+3c5RvBp9cnFi4XkBz8fiFq8UeTnEbBKRNc+IHzIZs/Ux73AcjUltbDNn/pSqMt6qIdr5+Qcs9dfyeQQMrXDx8R0rNkK4Zwv3qsPnwcN7ym4x+dYNV9+c1Pwikk/GEPpLM3CTcWWHSG9RXifePO1x3OuqbfnNSBVRyLL/3mZBTis2Rz3XVXb1ja8cVfvHJ9aDd8uHj3WEB8+ZGJPIzf7kOPB70sW7u5w5ih+yu3Pwlji+y4hhQjO9ZrfjXh/HFOa8GV5eadr3NuJfziwEehfhoO7kjokroh61jn+VUDX3FOzUF2TlwhvVi8Da0cYLgavXaqoUOfXK9vrq+2X+yvt9ohHTHj6QrL96WjsdHYCAPCwIOIARHufkC4ITFONiGcL73xsc1b0naahoOWj9Q4NhCSFPtwQ1Qpk7wg2ZSFvEGoeCYPp5FA1LxeDyFeWM69HrcyZ8lWDOEeN+In9j8+GBOOgJsxrv3UCVxsIJ0u15EzF8O9t510KcE/mLyenmwb/3Q2I94njjaELIb6P/4+6JgTPDydEOssBJOTSsjHxoT4LNm8ju7qbcbchYH00iakGQu2+3BTN0QcCz3pyMaRkMnjFsdNmh42WS477j/FyE6f2VxRNxcbkY07263tbMwg5J7umyLvM0cxomeXjc2Jf/BbDN4mjf6JffvyCPuXj8YY916vhxwFCNm+vPTRTmmeR6Fe6MKAMCAMCAPlhAER7jIg3MUCgp/lG5vST23glA3ILxZtjtBLI82F2sEVBaLlrgKF8qalFZItLX8ybvHUwfaP7zbbHz7veGYz+ehzfP52smxPn7HWo7vu1NNT2bL0xhnWTlaT8uHugf8/Y59MK+Y5S3ZOGKH9JJGnbuL4SBW8pbWFbJxYEp/fHefLhzcs27//vMV++16zrZiV/kdI85sGhSMBpw/rTMbjNnSvl60wIAwIA8JAuWBAhLsfEe5CoOFnfLc43vrgm+AeUih/OabVVA2wx7d0/niyHGWVTKVZxAcPeij8u2R1RX5XkZOzK+zOpvY/4tFYlGYspFfpVRgQBoSB3sOACPd9QrhxJeEfFTnZIv6gUpOl9yaLdFkeuqwY9LBxaTzKYzw0DhoHYUAYEAayMSDCfZ8QboE9G+zSkXQkDAgDwoAwIAwIA/cCAyLcItyyFAoDwoAwIAwIA8KAMCAMlBADItwlVO692EGpTe3chQFhQBgQBoQBYUAYKC8MiHCLcGtHKwwIA8KAMCAMCAPCgDBQQgyIcJdQudpdltfuUuOh8RAGhAFhQBgQBoSBe4EBEW4Rbu1ohQFhQBgQBoQBYUAYEAZKiAER7hIq917soNSmdu7CgDAgDAgDwoAwIAyUFwZEuMuUcFdWVtrAgQNTd5sDBgww0h9+WGcRs6CgB+mivBYWLfQaD2FAGBAGhAFhoB0DItxlSLjr6+vt2LFjNmrUqFTCPWPGDDt06JANGjQoNb3UAN+4caNNmTKlYNvjxo2zmTNn5q7a2lobOnRo7pm0SZMm5epgEzF9+vTUq6qq/a/LZ8+ebfQ/7uOmTZtCvXEcBJxyLS0ttmLFihB6+ogRI2zDhg0d6iBt27ZthtyeT2H7QiFdSBfCgDAgDAgDwkD3MSDCXYaEe/HixbZnz568xG/79u22cuXKXPqiRYuMuPiKCTFkd926dbZ3796QZ8KECbmyTJ7m5mbbsmWL7du3zzZv3mwQUp9UENZdu3Z1uA4ePGhcyXjyejlIOUR47dq1oS+0OX78+CADcRDeHTt25PJXVFTYkSNHbOvWrR0u2hk9enTob3V1tS1YsMDmzJkTyi1dujT0B7nJ5/2HNFMXm5b9+/cHGeijy9bU1BTy8sy9t3ngwIEgnz9Pnjw5V2bs2LFhk4Fe811xG96Wwu4vTtKddCcMCAPCgDBwv2BAhLvMCDeWXkji/Pnzc2QvBltDQ0Mn6zcEEPIJ8YR0ch+TP4hxa2urzZ07NxDdo0ePGlZ06oXEQk4h2qRTHuI5ePDgkI4VGjI+ceLEYJFetmxZuOeZe9rmnjyxxRrCDVF+5JFHbNWqVeaEe/Xq1SGO9pOEm00G+ePL60EuNg4x4fbNgBPg9evXh75Doumz9yHWHzIuWbIkEGvKYXWnH5DsadOmhYuNCRua4cOH58aAzQPyJTcZ/kwZdBi3pXu9KIQBYUAYEAaEAWEADIhwlxnhxjoLIYYIpk1SrN+Q57Q0SCHW7jgNtwosvSNHjgzxTughl+SDgOKe4v7inh/SSjryUCdkF5eL3bt3B1cWyCwkGBIKmZ43b14Hko8Fm3b9Ig91+TNhknDHafE9xD2NcCPfzp07c+2iF+ROkvlYH5B/yhw+fNjWrFkT+lhXVxc2GUOGDDHuSYvdWCiPbuNNTFwn96SJcGtRTeJCz8KEMCAMCAPCABgQ4S4zwo27BeQubYI6WYbcpqWnEW6IMuQ1JpCQ11mzZoU6IN6Q6Lg+8joBh/jjA40VnBDXD0grlmryTJ06NZBVrMt8yOn1ICvpXJBYSL3Xi/UesuttUIZ6Ie+EXFjpIdrcU1ca4cb6jTWeC7JNP+kLfYI0Uya+XDZIOfE8Iwv39I86sFR7WSzhXkaEWwumY0GhsCAMCAPCgDDQVQyIcJcR4YZcQvxi3+F4QPGBLmT97i3CHbcJoYbYYiGHfOM6gvsFIRcuKRBtCDd+zpTF0ks/uJCXEDIcx/mzby4g4xBe+ohrC8R5+fLl4b6mpiaQ4qRLCVZlrObkx7WDey4+NsW9BuJNHVjS3aKPfBBurNzombykQbyJ496v2KItwq3FNZ4XuhcehAFhQBgQBrqCARHuMiLcnNxR6PQRPnx0gpo2yKUg3LTDaSh8qMiHiVi3ecalBCs3caTFJ6ZAzHHr4DQR0iHjPHNhnaePWNh5dtcZJ9XeRwgz/cHqDfHFCp0k3LjD4O6CHFimuedqbGzMuavgyuKuI/SFjQP+2RB+Ng6kIye/LEDaufeLzYbrWYRbC6tjQaGwIAwIA8KAMNBVDIhwlxHhxhKL20baIGZZvylTCsINQcZlA0s1srkV2UMIOOSVPO7qwvF++HtTBp9zdyXBhYR+YEGGiNNfjvnjCD9ORkF+CDekmBBLNGQ6H+GmHcgz/uJ8aMo9F64oWN/RSUy4cU3BXQTrOeSadsnPM9Z3ZOZCNgg8ln0fCxFuLa6OBYXCgjAgDAgDwkBXMSDCXSaEmxMxIK6QzLRBxCIMEYwtycl8aYQbCzL1Yk32/LhuYMXlmZM6IMuehuUa67J/ZAmpxZKMhZlyfipHHFKePG4RhiRDpmnXLz9j258JIbUQdtrmpBPKdYVwQ5iRA9cQCDbEm5NL6BMWa+qNCTfPnIAS+3AThwXcreBsCtyqTppfItztunCdKJROhAFhQBgQBoSB4jAgwh2RqnsJGj7Qw9KaTwb8i/FHTkvHDxmSCfmEdHLP8YHkhZRCiLHW4mPNsXqQXSf2fswg7WNJhgBj7cUSHbeF5Tc+n9vTONkD67I/e4hrh/uiY/l2wu1WcD6kjE/1WLhwYXBNiQk35Bm5kQsfa2SKjwUknk2AW7RpA6LG3FTkAAANWElEQVSNJR6/bmRJEm7ikoSbttER+oNY01fvh4ci3MUtKK4vhdKXMCAMCAPCgDDQjgER7jIg3FhVIXxOEpMAxScZkuxW52Q61tnYcsy9/zkMeSHakGLiIdOQ17gO8uJqQbpbq+N07iGhEFP/oNBD/M7zEW7Ot8byDQl2ws09cbiSxIQbCzrEOSbckFz8vfHddnk4vcT7Rnl05oQb8g9B55cAdEaZNMINkac9r5MPP5HHP+pEB/yiEJ+igizoCHnSLtLi/njdCtsXG+lCuhAGhAFhQBh4UDEgwl0GhBtSiL8zxC8NiJDMQtbvtDLJOCzd+FLjx5xM4xlyGR/rl8wD4cZNxP+F0UOIaz7CjcUYEoqLhhNu7omjnBNU3GRwL0E2SDOh+3C7HOT3TQHuJ5SBBEOeqRPLPnk55ST2vU4SbuplY+EuJ/SDZ/QLkcelhvqxnHud1EtbkHLIfdqV3EC43Ar1chEGhAFhQBgQBoQBEe4yINy4OLj7RdqkhADiNpKW1ldxtI//c7I9yLEfBxin4TMOwScO9xFOIeHinjiIrbu18Jx0YcH3PPZX5xn3F+qI20Em9BNvVuK6iI9dYZCJetx6jSXcT0qJ6yU9rpONgJeJ8/k9ekjTj6cr1GIrDAgDwoAwIAw8uBgQ4S4Dwq0J+OBOQI29xl4YEAaEAWFAGLj/MSDCLcLdwWKsSX//T3qNscZYGBAGhAFhQBjoWwyIcItwi3ALA8KAMCAMCAPCgDAgDJQQAyLcJVSudo99u3uUvqVvYUAYEAaEAWFAGChHDIhwi3BrRysMCAPCgDAgDAgDwoAwUEIMiHCXULnluMOSTNr5CwPCgDAgDAgDwoAw0LcYEOEW4daOVhgQBoQBYUAYEAaEAWGghBgQ4S6hcrV77Nvdo/QtfQsDwoAwIAwIA8JAOWJAhFuEu093tFUVA2xYTfu/XY5pHNin7ZfjJJRMejkIA8KAMCAMCAP3NwZEuEW4+4zwHt9YZb99r9kOr237B0oWl7+80WTfvjzSZowb1GdyaFG7vxc1ja/GVxgQBoQBYaDcMCDCfR8R7rVbdtvTr7xhl66/Y89df7tPCOyOAyds34lzmW09t7/Gfv95i10/UW+xVXvzwgr75a0m++c7Y2z8yJ9k1lNuE0jyaFEXBoQBYUAYEAaEgSwMiHDfJ4R75OgWe/3j7+3JF2/Z0bPP2pGzz/YJeT12/pKdevaVgm1NGzvI/v3TFnuqtSY1X8PQAfarN0bZRxeHp6ZngVjpWuiEAWFAGBAGhAFhoJwxIMJdBoS7urbOdhw4blNmzAnW4tbDp2z8lOkdyOek6bNt77EzdvDUBVuyekOHNAA2bdZce+OTH6yxaXSntA079tmMuQtDG1ij5y5e0SEPZXbsP26HTj9tG3fus0cqKjukN4+baFiySd+656g1jx2fS3fCvXrTTjt46ilbu7XVBg0anEtHtot7a+wf3222wYPyLwZHN1QFUp42WWYN/4mdn19pzdXtvt9p+RSXX7/SjXQjDAgDwoAwIAzcOwyIcJcB4R41dlwgy1ff/cIuvnrbXn3nc7tx5ysbM35SIK7TZ8+3mx98Yy+98ZFdvHo75IUAM3Eg2k+9/LpduvFuiH/mypvh+cLLr+dI74uvf2jX3vupXb71vnEPMV++bktIr60bFuKuvvfT4I5CO+dfuJkrW1VTG+S5/v6XoQ3Cl9/82IinfQg3Za/c/jS4sVD3/pPnc+XJ8/bZBvvk2cLWa6zg//lFS4dyvjC8vrbafn2owZ6YW5Ga7vkU3ruFRLqX7oUBYUAYEAaEgfwYEOEuI8K9efehQCiHjxxl1+98Zf4MqX322m0bNGRISN9z5HQguAAbq/jJZ16yc5evByJ9+tlXwvPjT7+YI6eQ7NPPXQnPWJ8h5e4GgmX65p2vDZcU6sP6DWl2Cztkn2faIb2pucX2n3zS2CTwjGyvvPVpjoBjBYeQk+bXnaeG27vnG3LPHh+HI+sG5CXcS0b/xC4ve9Qm1svCHetM9+0Yky6kC2FAGBAGhIFyxoAId0QM79VAuYXbSS1ynLhw2dZv3xtI6plLV4NlG1cTrhMXXrDXPvquA4F1l5JhI5o6xFMXhHtL6+FcPPeHz1wMz9v2HgsWbK8bMg/Bnrt4eUiH/GP1xoKOO8rKDdty5Jq6IdxPPPdqru5VG3cEi3esy54S7rgu3WtBFQaEAWFAGBAGhIH+hgER7jIi3BOnzcoR1xhIZy9dC1ZkXD38Ovv8tQ55swj3pl0HO+T3+iHcN+58navX658cybJw+Ro7/8KNQMwh47i24HdOHRBut5bzvHLD9k6E+/0Lw+yDpwu7lIwb8ZO8Fm6XVaEWWGFAGBAGhAFhQBjojxgQ4e4HhPuJ567Y8SefzxFm/Kf5kDEGXHcJN9ZuCLTXNWDgQGuZOMUGP9LmL02In7enz1m0LFjAIeHEFUO4rx2vt1/c7Gx59zoJNyyoyEu46x8ZYItHDbJRVXIpiXWme710hAFhQBgQBoSB/oEBEe5+QLh3HjwRPqLEevzY/MV27vINe/H1dpLMZOsu4aY+rNY7D54MJ5ngNsLxgqNbJgRCvXjV+vAMMZ+/dKUhC/kpR7vFEO5tSyrsD1+02OrZj+SIe3KB4KPKv35tVGr6sccqwkeTS5t1TndSb3ruHwutxknjJAwIA8LAg40BEe5+QLgrq4cGP2mIbptLx8c2b0nHo/2ccNcPH9GJtOLDnc+lhAUA/+1bH34b6uZjzdjfmw81Tz3zciDdtP36R98Fku0LR2fCvc04bcXTCQcMeMh+uDIy/MvkxgUdTxqprx5gN07WB0K+Z0XH4wi9jtvrq+3LHbX2cBmMlcuk8MFeODX+Gn9hQBgQBoSBrmBAhLsfkThcOxqbxnQgs10Z7EJ5KyqrwskjfhJKMi8+25y/nTyjO5kv3zOnkEC6OfrvwJpHc33482tN9m+fttjjW6tzcXEdQwY+ZL/cX28HZ7Sd0BKn6V6LnTAgDAgDwoAwIAz0BwyIcPcjwt0fAFVIRizdO5dV2oIp7X+Mwx/ejCvwl+7zmwbZL/bXW+0Q+W8X0q3S9MIRBoQBYUAYEAbKFwMi3CLcqZblcpm0gwY8ZDUi22U9RuWCFclRvi8ajY3GRhgQBh50DIhwi3CLzAkDwoAwIAwIA8KAMCAMlBADItwlVO6DvptT/2XREAaEAWFAGBAGhAFh4CET4Rbh1o5WGBAGhAFhQBgQBoQBYaCEGHigCbd2XNp1CwPCgDAgDAgDwoAwIAyUGgMi3CXczZR68FS/FghhQBgQBoQBYUAYEAbKHwMi3CLc+glJGBAGhAFhQBgQBoQBYaCEGBDhLqFyteMs/x2nxkhjJAwIA8KAMCAMCAOlxkCfEu6mUaNt1qxZNnz48LLbRQ2oGGgDBuvPVUoNONWvRU0YEAaEAWFAGBAGHjQM9BnhHj5ipI2fONGam5ttwoQJVldXV1aku/HoFGu5tdgIHx70cFnJ9qCBUv3VQiwMCAPCgDAgDAgD9xMG+oRwD2sc2YFkQ7bLjXQPHlFhNUtG2Nibi6zysXoRbrnaCAPCgDAgDAgDwoAwIAz0CgZKTriHNTamkutyJN3spJpfnGtV8xt7Rbn3085MfZGlQRgQBoQBYUAYEAaEge5hoKSEu2porc2ZMyev+wikm/TBgweXDcEde22hPTpTFm5NqO5NKOlNehMGhAFhQBgQBoSBJAZKSrgHV1QFQp1sNH6GcMfP9/o+uJRMry0rme61TtS+Fg5hQBgQBoQBYUAYEAa6jwER7oRv0sizM6zpqcesdvMYq13fLOKd0I8mW/cnm3Qn3QkDwoAwIAwIAw8mBvqMcGPJTl6Artws3PVbx4YPJ0c/P8dGXZwtwi3CLQwIA8KAMCAMCAPCgDDQIwz0GeHOt6MrN8I99uoCq543rEdKzddXxT+Yu1qNu8ZdGBAGhAFhQBh4sDEgwp3YsY29scgq5cOtDUcCF1ooH+yFUuOv8RcGhAFhQBjoCQZEuBPEqvnl+VY1VxbunoBKZbUoCQPCgDAgDAgDwoAw0I6BPiHcSd/t5HO5DMjAqkHGsYByKWkHSLmMjeTQmAgDwoAwIAwIA8JAf8VAyQk3RwPGV7n5bPvADd830XAnGXNlgQ0cWj7ngrt8CrXICAPCgDAgDAgDwoAw0D8xIMJ916UEv21cSQZUDZL/csLNRpO7f05ujZvGTRgQBoQBYUAYKA8MiHCLXGqDIQwIA8KAMCAMCAPCgDBQQgyIcJdQudpVlseuUuOgcRAGhAFhQBgQBoSBe4kBEW4Rbu1ohQFhQBgQBoQBYUAYEAZKiAER7hIq917upNS2dvLCgDAgDAgDwoAwIAyUBwZEuEW4taMVBoQBYUAYEAaEAWFAGCghBkS4S6hc7SrLY1epcdA4CAPCgDAgDAgDwsC9xIAItwi3drTCgDAgDAgDwoAwIAwIAyXEgAh3CZV7L3dSals7eWFAGBAGhAFhQBgQBsoDAyLcItza0QoDwoAwIAwIA8KAMCAMlBADItwlVK52leWxq9Q4aByEAWFAGBAGhAFh4F5i4P8H0c5JkUpb2ioAAAAASUVORK5CYII=;" parent="1" vertex="1">
          <mxGeometry x="410" y="267" width="732" height="216" as="geometry" />
        </mxCell>
        <mxCell id="J_k8vYTDvHg9-RJwA689-16" value="3-1" style="edgeStyle=orthogonalEdgeStyle;rounded=0;orthogonalLoop=1;jettySize=auto;html=1;exitX=0.25;exitY=0;exitDx=0;exitDy=0;entryX=0.25;entryY=1;entryDx=0;entryDy=0;" parent="1" source="J_k8vYTDvHg9-RJwA689-5" target="J_k8vYTDvHg9-RJwA689-13" edge="1">
          <mxGeometry x="0.212" relative="1" as="geometry">
            <Array as="points">
              <mxPoint x="1310" y="-1.25" />
            </Array>
            <mxPoint as="offset" />
          </mxGeometry>
        </mxCell>
        <mxCell id="J_k8vYTDvHg9-RJwA689-32" value="" style="edgeStyle=orthogonalEdgeStyle;rounded=0;orthogonalLoop=1;jettySize=auto;html=1;" parent="1" source="J_k8vYTDvHg9-RJwA689-5" target="J_k8vYTDvHg9-RJwA689-31" edge="1">
          <mxGeometry relative="1" as="geometry" />
        </mxCell>
        <mxCell id="J_k8vYTDvHg9-RJwA689-33" value="3-2-1" style="edgeLabel;html=1;align=center;verticalAlign=middle;resizable=0;points=[];" parent="J_k8vYTDvHg9-RJwA689-32" vertex="1" connectable="0">
          <mxGeometry x="-0.054" y="-2" relative="1" as="geometry">
            <mxPoint as="offset" />
          </mxGeometry>
        </mxCell>
        <mxCell id="J_k8vYTDvHg9-RJwA689-51" style="edgeStyle=orthogonalEdgeStyle;rounded=0;orthogonalLoop=1;jettySize=auto;html=1;exitX=0.75;exitY=1;exitDx=0;exitDy=0;entryX=0;entryY=0.5;entryDx=0;entryDy=0;" parent="1" source="J_k8vYTDvHg9-RJwA689-5" target="J_k8vYTDvHg9-RJwA689-49" edge="1">
          <mxGeometry relative="1" as="geometry" />
        </mxCell>
        <mxCell id="J_k8vYTDvHg9-RJwA689-52" value="3-3-1" style="edgeLabel;html=1;align=center;verticalAlign=middle;resizable=0;points=[];" parent="J_k8vYTDvHg9-RJwA689-51" vertex="1" connectable="0">
          <mxGeometry x="0.1471" relative="1" as="geometry">
            <mxPoint as="offset" />
          </mxGeometry>
        </mxCell>
        <mxCell id="J_k8vYTDvHg9-RJwA689-5" value="3-1. this方法&lt;br&gt;3-2. 首先创建AnnotatedBeanDefinitionReader，&lt;br&gt;3-3.创建ClassPathBeanDefinitionScanner" style="whiteSpace=wrap;html=1;verticalAlign=middle;labelBackgroundColor=#ffffff;align=left;" parent="1" vertex="1">
          <mxGeometry x="1160" y="-1.25" width="480" height="90" as="geometry" />
        </mxCell>
        <mxCell id="J_k8vYTDvHg9-RJwA689-54" value="" style="edgeStyle=orthogonalEdgeStyle;rounded=0;orthogonalLoop=1;jettySize=auto;html=1;" parent="1" source="J_k8vYTDvHg9-RJwA689-7" target="J_k8vYTDvHg9-RJwA689-53" edge="1">
          <mxGeometry relative="1" as="geometry" />
        </mxCell>
        <mxCell id="J_k8vYTDvHg9-RJwA689-67" value="4-1" style="edgeLabel;html=1;align=center;verticalAlign=middle;resizable=0;points=[];" parent="J_k8vYTDvHg9-RJwA689-54" vertex="1" connectable="0">
          <mxGeometry x="0.3976" y="-4" relative="1" as="geometry">
            <mxPoint as="offset" />
          </mxGeometry>
        </mxCell>
        <mxCell id="J_k8vYTDvHg9-RJwA689-58" value="" style="edgeStyle=orthogonalEdgeStyle;rounded=0;orthogonalLoop=1;jettySize=auto;html=1;" parent="1" source="J_k8vYTDvHg9-RJwA689-7" target="J_k8vYTDvHg9-RJwA689-57" edge="1">
          <mxGeometry relative="1" as="geometry" />
        </mxCell>
        <mxCell id="J_k8vYTDvHg9-RJwA689-68" value="4-2" style="edgeLabel;html=1;align=center;verticalAlign=middle;resizable=0;points=[];" parent="J_k8vYTDvHg9-RJwA689-58" vertex="1" connectable="0">
          <mxGeometry x="0.7098" y="1" relative="1" as="geometry">
            <mxPoint x="1" y="-16" as="offset" />
          </mxGeometry>
        </mxCell>
        <mxCell id="J_k8vYTDvHg9-RJwA689-60" value="4-3" style="edgeStyle=orthogonalEdgeStyle;rounded=0;orthogonalLoop=1;jettySize=auto;html=1;" parent="1" source="J_k8vYTDvHg9-RJwA689-7" target="J_k8vYTDvHg9-RJwA689-59" edge="1">
          <mxGeometry x="0.8865" relative="1" as="geometry">
            <mxPoint as="offset" />
          </mxGeometry>
        </mxCell>
        <mxCell id="J_k8vYTDvHg9-RJwA689-63" value="4-4" style="edgeStyle=orthogonalEdgeStyle;rounded=0;orthogonalLoop=1;jettySize=auto;html=1;" parent="1" source="J_k8vYTDvHg9-RJwA689-7" target="J_k8vYTDvHg9-RJwA689-62" edge="1">
          <mxGeometry x="0.9126" relative="1" as="geometry">
            <Array as="points">
              <mxPoint x="2790" y="650" />
            </Array>
            <mxPoint as="offset" />
          </mxGeometry>
        </mxCell>
        <mxCell id="J_k8vYTDvHg9-RJwA689-66" value="" style="edgeStyle=orthogonalEdgeStyle;rounded=0;orthogonalLoop=1;jettySize=auto;html=1;" parent="1" source="J_k8vYTDvHg9-RJwA689-7" target="J_k8vYTDvHg9-RJwA689-65" edge="1">
          <mxGeometry relative="1" as="geometry">
            <Array as="points">
              <mxPoint x="2920" y="650" />
            </Array>
          </mxGeometry>
        </mxCell>
        <mxCell id="J_k8vYTDvHg9-RJwA689-71" value="4-5" style="edgeLabel;html=1;align=center;verticalAlign=middle;resizable=0;points=[];" parent="J_k8vYTDvHg9-RJwA689-66" vertex="1" connectable="0">
          <mxGeometry x="0.9271" y="1" relative="1" as="geometry">
            <mxPoint as="offset" />
          </mxGeometry>
        </mxCell>
        <mxCell id="J_k8vYTDvHg9-RJwA689-73" value="4-6" style="edgeStyle=orthogonalEdgeStyle;rounded=0;orthogonalLoop=1;jettySize=auto;html=1;" parent="1" source="J_k8vYTDvHg9-RJwA689-7" target="J_k8vYTDvHg9-RJwA689-72" edge="1">
          <mxGeometry x="0.9094" relative="1" as="geometry">
            <mxPoint as="offset" />
          </mxGeometry>
        </mxCell>
        <mxCell id="J_k8vYTDvHg9-RJwA689-75" value="" style="edgeStyle=orthogonalEdgeStyle;rounded=0;orthogonalLoop=1;jettySize=auto;html=1;" parent="1" source="J_k8vYTDvHg9-RJwA689-7" target="J_k8vYTDvHg9-RJwA689-74" edge="1">
          <mxGeometry relative="1" as="geometry" />
        </mxCell>
        <mxCell id="J_k8vYTDvHg9-RJwA689-76" value="4-7" style="edgeLabel;html=1;align=center;verticalAlign=middle;resizable=0;points=[];" parent="J_k8vYTDvHg9-RJwA689-75" vertex="1" connectable="0">
          <mxGeometry x="0.8614" y="1" relative="1" as="geometry">
            <mxPoint as="offset" />
          </mxGeometry>
        </mxCell>
        <mxCell id="J_k8vYTDvHg9-RJwA689-78" value="4-8" style="edgeStyle=orthogonalEdgeStyle;rounded=0;orthogonalLoop=1;jettySize=auto;html=1;" parent="1" source="J_k8vYTDvHg9-RJwA689-7" target="J_k8vYTDvHg9-RJwA689-77" edge="1">
          <mxGeometry x="0.8919" relative="1" as="geometry">
            <mxPoint as="offset" />
          </mxGeometry>
        </mxCell>
        <mxCell id="J_k8vYTDvHg9-RJwA689-7" value="Registry" style="whiteSpace=wrap;html=1;verticalAlign=middle;labelBackgroundColor=#ffffff;" parent="1" vertex="1">
          <mxGeometry x="1845" y="620" width="120" height="60" as="geometry" />
        </mxCell>
        <mxCell id="J_k8vYTDvHg9-RJwA689-87" value="" style="edgeStyle=orthogonalEdgeStyle;rounded=0;orthogonalLoop=1;jettySize=auto;html=1;entryX=1;entryY=0.5;entryDx=0;entryDy=0;" parent="1" source="J_k8vYTDvHg9-RJwA689-9" edge="1">
          <mxGeometry relative="1" as="geometry">
            <mxPoint x="600" y="970" as="targetPoint" />
            <Array as="points">
              <mxPoint x="776" y="970" />
            </Array>
          </mxGeometry>
        </mxCell>
        <mxCell id="J_k8vYTDvHg9-RJwA689-92" value="5-1" style="edgeLabel;html=1;align=center;verticalAlign=middle;resizable=0;points=[];" parent="J_k8vYTDvHg9-RJwA689-87" vertex="1" connectable="0">
          <mxGeometry x="0.4203" y="1" relative="1" as="geometry">
            <mxPoint as="offset" />
          </mxGeometry>
        </mxCell>
        <mxCell id="J_k8vYTDvHg9-RJwA689-89" value="" style="edgeStyle=orthogonalEdgeStyle;rounded=0;orthogonalLoop=1;jettySize=auto;html=1;entryX=1;entryY=0.5;entryDx=0;entryDy=0;" parent="1" source="J_k8vYTDvHg9-RJwA689-9" target="J_k8vYTDvHg9-RJwA689-88" edge="1">
          <mxGeometry relative="1" as="geometry">
            <Array as="points">
              <mxPoint x="776" y="1137" />
              <mxPoint x="630" y="1137" />
            </Array>
          </mxGeometry>
        </mxCell>
        <mxCell id="J_k8vYTDvHg9-RJwA689-94" value="5-2" style="edgeLabel;html=1;align=center;verticalAlign=middle;resizable=0;points=[];" parent="J_k8vYTDvHg9-RJwA689-89" vertex="1" connectable="0">
          <mxGeometry x="0.5983" y="-1" relative="1" as="geometry">
            <mxPoint as="offset" />
          </mxGeometry>
        </mxCell>
        <mxCell id="J_k8vYTDvHg9-RJwA689-90" style="edgeStyle=orthogonalEdgeStyle;rounded=0;orthogonalLoop=1;jettySize=auto;html=1;exitX=0.5;exitY=1;exitDx=0;exitDy=0;entryX=1;entryY=0.5;entryDx=0;entryDy=0;" parent="1" source="J_k8vYTDvHg9-RJwA689-9" target="J_k8vYTDvHg9-RJwA689-91" edge="1">
          <mxGeometry relative="1" as="geometry">
            <mxPoint x="776" y="1440" as="targetPoint" />
            <Array as="points">
              <mxPoint x="776" y="1330" />
            </Array>
          </mxGeometry>
        </mxCell>
        <mxCell id="J_k8vYTDvHg9-RJwA689-95" value="5-3" style="edgeLabel;html=1;align=center;verticalAlign=middle;resizable=0;points=[];" parent="J_k8vYTDvHg9-RJwA689-90" vertex="1" connectable="0">
          <mxGeometry x="0.6027" y="-2" relative="1" as="geometry">
            <mxPoint as="offset" />
          </mxGeometry>
        </mxCell>
        <mxCell id="J_k8vYTDvHg9-RJwA689-97" style="edgeStyle=orthogonalEdgeStyle;rounded=0;orthogonalLoop=1;jettySize=auto;html=1;exitX=0.5;exitY=1;exitDx=0;exitDy=0;entryX=1;entryY=0.5;entryDx=0;entryDy=0;" parent="1" source="J_k8vYTDvHg9-RJwA689-9" target="J_k8vYTDvHg9-RJwA689-96" edge="1">
          <mxGeometry relative="1" as="geometry" />
        </mxCell>
        <mxCell id="J_k8vYTDvHg9-RJwA689-98" value="5-4" style="edgeLabel;html=1;align=center;verticalAlign=middle;resizable=0;points=[];" parent="J_k8vYTDvHg9-RJwA689-97" vertex="1" connectable="0">
          <mxGeometry x="0.7435" relative="1" as="geometry">
            <mxPoint as="offset" />
          </mxGeometry>
        </mxCell>
        <mxCell id="J_k8vYTDvHg9-RJwA689-102" style="edgeStyle=orthogonalEdgeStyle;rounded=0;orthogonalLoop=1;jettySize=auto;html=1;exitX=0.5;exitY=1;exitDx=0;exitDy=0;entryX=1.004;entryY=0.585;entryDx=0;entryDy=0;entryPerimeter=0;" parent="1" source="J_k8vYTDvHg9-RJwA689-9" target="J_k8vYTDvHg9-RJwA689-99" edge="1">
          <mxGeometry relative="1" as="geometry">
            <Array as="points">
              <mxPoint x="776" y="1710" />
              <mxPoint x="301" y="1710" />
            </Array>
          </mxGeometry>
        </mxCell>
        <mxCell id="J_k8vYTDvHg9-RJwA689-103" value="5-5" style="edgeLabel;html=1;align=center;verticalAlign=middle;resizable=0;points=[];" parent="J_k8vYTDvHg9-RJwA689-102" vertex="1" connectable="0">
          <mxGeometry x="0.6188" y="2" relative="1" as="geometry">
            <mxPoint as="offset" />
          </mxGeometry>
        </mxCell>
        <mxCell id="J_k8vYTDvHg9-RJwA689-108" style="edgeStyle=orthogonalEdgeStyle;rounded=0;orthogonalLoop=1;jettySize=auto;html=1;exitX=0.5;exitY=1;exitDx=0;exitDy=0;entryX=1;entryY=0.5;entryDx=0;entryDy=0;" parent="1" source="J_k8vYTDvHg9-RJwA689-9" target="J_k8vYTDvHg9-RJwA689-106" edge="1">
          <mxGeometry relative="1" as="geometry" />
        </mxCell>
        <mxCell id="J_k8vYTDvHg9-RJwA689-109" value="5-6" style="edgeLabel;html=1;align=center;verticalAlign=middle;resizable=0;points=[];" parent="J_k8vYTDvHg9-RJwA689-108" vertex="1" connectable="0">
          <mxGeometry x="0.8308" y="2" relative="1" as="geometry">
            <mxPoint as="offset" />
          </mxGeometry>
        </mxCell>
        <mxCell id="J_k8vYTDvHg9-RJwA689-111" style="edgeStyle=orthogonalEdgeStyle;rounded=0;orthogonalLoop=1;jettySize=auto;html=1;exitX=0.5;exitY=1;exitDx=0;exitDy=0;entryX=0;entryY=0.5;entryDx=0;entryDy=0;" parent="1" source="J_k8vYTDvHg9-RJwA689-9" target="J_k8vYTDvHg9-RJwA689-110" edge="1">
          <mxGeometry relative="1" as="geometry" />
        </mxCell>
        <mxCell id="J_k8vYTDvHg9-RJwA689-112" value="5-7" style="edgeLabel;html=1;align=center;verticalAlign=middle;resizable=0;points=[];" parent="J_k8vYTDvHg9-RJwA689-111" vertex="1" connectable="0">
          <mxGeometry x="0.8138" relative="1" as="geometry">
            <mxPoint as="offset" />
          </mxGeometry>
        </mxCell>
        <mxCell id="J_k8vYTDvHg9-RJwA689-114" style="edgeStyle=orthogonalEdgeStyle;rounded=0;orthogonalLoop=1;jettySize=auto;html=1;exitX=0.5;exitY=1;exitDx=0;exitDy=0;entryX=0;entryY=0.5;entryDx=0;entryDy=0;" parent="1" source="J_k8vYTDvHg9-RJwA689-9" target="J_k8vYTDvHg9-RJwA689-113" edge="1">
          <mxGeometry relative="1" as="geometry" />
        </mxCell>
        <mxCell id="J_k8vYTDvHg9-RJwA689-115" value="5-8" style="edgeLabel;html=1;align=center;verticalAlign=middle;resizable=0;points=[];" parent="J_k8vYTDvHg9-RJwA689-114" vertex="1" connectable="0">
          <mxGeometry x="0.8185" y="-1" relative="1" as="geometry">
            <mxPoint as="offset" />
          </mxGeometry>
        </mxCell>
        <mxCell id="J_k8vYTDvHg9-RJwA689-117" style="edgeStyle=orthogonalEdgeStyle;rounded=0;orthogonalLoop=1;jettySize=auto;html=1;exitX=0.5;exitY=1;exitDx=0;exitDy=0;entryX=0;entryY=0.5;entryDx=0;entryDy=0;" parent="1" source="J_k8vYTDvHg9-RJwA689-9" target="J_k8vYTDvHg9-RJwA689-116" edge="1">
          <mxGeometry relative="1" as="geometry" />
        </mxCell>
        <mxCell id="J_k8vYTDvHg9-RJwA689-118" value="5-9" style="edgeLabel;html=1;align=center;verticalAlign=middle;resizable=0;points=[];" parent="J_k8vYTDvHg9-RJwA689-117" vertex="1" connectable="0">
          <mxGeometry x="0.849" y="-2" relative="1" as="geometry">
            <mxPoint as="offset" />
          </mxGeometry>
        </mxCell>
        <mxCell id="J_k8vYTDvHg9-RJwA689-120" style="edgeStyle=orthogonalEdgeStyle;rounded=0;orthogonalLoop=1;jettySize=auto;html=1;exitX=0.5;exitY=1;exitDx=0;exitDy=0;entryX=0;entryY=0.5;entryDx=0;entryDy=0;" parent="1" source="J_k8vYTDvHg9-RJwA689-9" target="J_k8vYTDvHg9-RJwA689-119" edge="1">
          <mxGeometry relative="1" as="geometry" />
        </mxCell>
        <mxCell id="J_k8vYTDvHg9-RJwA689-121" value="5-10" style="edgeLabel;html=1;align=center;verticalAlign=middle;resizable=0;points=[];" parent="J_k8vYTDvHg9-RJwA689-120" vertex="1" connectable="0">
          <mxGeometry x="0.8775" y="-1" relative="1" as="geometry">
            <mxPoint as="offset" />
          </mxGeometry>
        </mxCell>
        <mxCell id="J_k8vYTDvHg9-RJwA689-124" style="edgeStyle=orthogonalEdgeStyle;rounded=0;orthogonalLoop=1;jettySize=auto;html=1;exitX=0.5;exitY=1;exitDx=0;exitDy=0;entryX=0;entryY=0.5;entryDx=0;entryDy=0;" parent="1" source="J_k8vYTDvHg9-RJwA689-9" target="J_k8vYTDvHg9-RJwA689-122" edge="1">
          <mxGeometry relative="1" as="geometry" />
        </mxCell>
        <mxCell id="J_k8vYTDvHg9-RJwA689-125" value="5-11" style="edgeLabel;html=1;align=center;verticalAlign=middle;resizable=0;points=[];" parent="J_k8vYTDvHg9-RJwA689-124" vertex="1" connectable="0">
          <mxGeometry x="0.8917" y="1" relative="1" as="geometry">
            <mxPoint as="offset" />
          </mxGeometry>
        </mxCell>
        <mxCell id="J_k8vYTDvHg9-RJwA689-127" style="edgeStyle=orthogonalEdgeStyle;rounded=0;orthogonalLoop=1;jettySize=auto;html=1;exitX=0.5;exitY=1;exitDx=0;exitDy=0;entryX=0;entryY=0.5;entryDx=0;entryDy=0;" parent="1" source="J_k8vYTDvHg9-RJwA689-9" target="J_k8vYTDvHg9-RJwA689-126" edge="1">
          <mxGeometry relative="1" as="geometry" />
        </mxCell>
        <mxCell id="J_k8vYTDvHg9-RJwA689-128" value="5-12" style="edgeLabel;html=1;align=center;verticalAlign=middle;resizable=0;points=[];" parent="J_k8vYTDvHg9-RJwA689-127" vertex="1" connectable="0">
          <mxGeometry x="0.8612" y="-1" relative="1" as="geometry">
            <mxPoint x="-1" as="offset" />
          </mxGeometry>
        </mxCell>
        <mxCell id="J_k8vYTDvHg9-RJwA689-9" value="refresh" style="whiteSpace=wrap;html=1;verticalAlign=middle;labelBackgroundColor=#ffffff;" parent="1" vertex="1">
          <mxGeometry x="716" y="810" width="120" height="60" as="geometry" />
        </mxCell>
        <mxCell id="J_k8vYTDvHg9-RJwA689-11" value="根据传入参数Class&amp;lt;?&amp;gt; ...可知，其可以传入多个参数，但是一般不这么做" style="text;html=1;strokeColor=none;fillColor=none;align=center;verticalAlign=middle;whiteSpace=wrap;rounded=0;" parent="1" vertex="1">
          <mxGeometry x="780" y="160" width="240" height="50" as="geometry" />
        </mxCell>
        <mxCell id="J_k8vYTDvHg9-RJwA689-12" value="2" style="endArrow=classic;html=1;rounded=0;" parent="1" edge="1">
          <mxGeometry width="50" height="50" relative="1" as="geometry">
            <mxPoint x="890" y="200" as="sourcePoint" />
            <mxPoint x="920" y="271" as="targetPoint" />
          </mxGeometry>
        </mxCell>
        <mxCell id="J_k8vYTDvHg9-RJwA689-22" value="3-2" style="edgeStyle=orthogonalEdgeStyle;rounded=0;orthogonalLoop=1;jettySize=auto;html=1;exitX=0.75;exitY=1;exitDx=0;exitDy=0;entryX=0.646;entryY=0;entryDx=0;entryDy=0;entryPerimeter=0;" parent="1" source="J_k8vYTDvHg9-RJwA689-13" target="J_k8vYTDvHg9-RJwA689-5" edge="1">
          <mxGeometry x="0.0024" relative="1" as="geometry">
            <mxPoint as="offset" />
          </mxGeometry>
        </mxCell>
        <mxCell id="J_k8vYTDvHg9-RJwA689-13" value="this方法首先会隐式调用父类的构造函数去创建Bean工厂&lt;br&gt;this.beanFactory = new DefaultListableBeanFactory();" style="whiteSpace=wrap;html=1;verticalAlign=middle;labelBackgroundColor=#ffffff;align=center;" parent="1" vertex="1">
          <mxGeometry x="1230" y="-161.25" width="320" height="60" as="geometry" />
        </mxCell>
        <mxCell id="J_k8vYTDvHg9-RJwA689-20" value="对于参数而言，既可以是带有@Configuration注解的类，也可以是带@Component，@Import，@Service等注解的类，对于@Configuration注解的类，称为Full配置类，对于非@Configuration注解的类称之为Lite配置类" style="text;html=1;strokeColor=#d79b00;fillColor=#ffe6cc;align=center;verticalAlign=middle;whiteSpace=wrap;rounded=0;" parent="1" vertex="1">
          <mxGeometry x="600" y="20" width="330" height="70" as="geometry" />
        </mxCell>
        <mxCell id="J_k8vYTDvHg9-RJwA689-21" value="" style="endArrow=classic;html=1;rounded=0;entryX=0.5;entryY=0.2;entryDx=0;entryDy=0;entryPerimeter=0;" parent="1" target="J_k8vYTDvHg9-RJwA689-11" edge="1">
          <mxGeometry width="50" height="50" relative="1" as="geometry">
            <mxPoint x="850" y="90" as="sourcePoint" />
            <mxPoint x="670" y="120" as="targetPoint" />
          </mxGeometry>
        </mxCell>
        <mxCell id="J_k8vYTDvHg9-RJwA689-23" value="定义一个Bean定义读取器-&lt;br&gt;AnnotatedBeanDefinitionReader，完成spring内部Bean定义的注册，同时定义一个Bean定义扫描器ClassPathBeanDefinitionScanner，但是这个扫描器只有在外部调用的时候才会使用，Spring内部不会使用这个scanner，而是自己重新去new一个扫描器" style="text;html=1;strokeColor=#d79b00;fillColor=#ffe6cc;align=center;verticalAlign=middle;whiteSpace=wrap;rounded=0;" parent="1" vertex="1">
          <mxGeometry x="1600" y="-131.25" width="370" height="80" as="geometry" />
        </mxCell>
        <mxCell id="J_k8vYTDvHg9-RJwA689-25" value="" style="endArrow=classic;html=1;rounded=0;exitX=0.25;exitY=1;exitDx=0;exitDy=0;entryX=0.875;entryY=0;entryDx=0;entryDy=0;entryPerimeter=0;" parent="1" source="J_k8vYTDvHg9-RJwA689-23" target="J_k8vYTDvHg9-RJwA689-5" edge="1">
          <mxGeometry width="50" height="50" relative="1" as="geometry">
            <mxPoint x="1760" y="68.75" as="sourcePoint" />
            <mxPoint x="1810" y="18.75" as="targetPoint" />
          </mxGeometry>
        </mxCell>
        <mxCell id="J_k8vYTDvHg9-RJwA689-27" value="&lt;span style=&quot;&quot;&gt;DefaultListableBeanFactory处于继承关系的最底层，功能是最全的，所以会将其赋值给BeanFactory&lt;/span&gt;" style="text;html=1;align=center;verticalAlign=middle;whiteSpace=wrap;rounded=0;fillColor=#ffe6cc;strokeColor=#d79b00;labelBackgroundColor=none;" parent="1" vertex="1">
          <mxGeometry x="1396" y="-261.25" width="262" height="50" as="geometry" />
        </mxCell>
        <mxCell id="J_k8vYTDvHg9-RJwA689-29" value="" style="endArrow=classic;html=1;rounded=0;entryX=0.75;entryY=0;entryDx=0;entryDy=0;exitX=0.5;exitY=1;exitDx=0;exitDy=0;" parent="1" source="J_k8vYTDvHg9-RJwA689-27" target="J_k8vYTDvHg9-RJwA689-13" edge="1">
          <mxGeometry width="50" height="50" relative="1" as="geometry">
            <mxPoint x="1760" y="-181.25" as="sourcePoint" />
            <mxPoint x="1810" y="-231.25" as="targetPoint" />
          </mxGeometry>
        </mxCell>
        <mxCell id="J_k8vYTDvHg9-RJwA689-161" value="" style="edgeStyle=orthogonalEdgeStyle;rounded=0;orthogonalLoop=1;jettySize=auto;html=1;" parent="1" source="J_k8vYTDvHg9-RJwA689-31" target="J_k8vYTDvHg9-RJwA689-160" edge="1">
          <mxGeometry relative="1" as="geometry">
            <Array as="points">
              <mxPoint x="2240" y="44" />
            </Array>
          </mxGeometry>
        </mxCell>
        <mxCell id="J_k8vYTDvHg9-RJwA689-163" value="3-2-1-1" style="edgeLabel;html=1;align=center;verticalAlign=middle;resizable=0;points=[];" parent="J_k8vYTDvHg9-RJwA689-161" vertex="1" connectable="0">
          <mxGeometry x="0.8498" y="1" relative="1" as="geometry">
            <mxPoint as="offset" />
          </mxGeometry>
        </mxCell>
        <mxCell id="J_k8vYTDvHg9-RJwA689-166" value="" style="edgeStyle=orthogonalEdgeStyle;rounded=0;orthogonalLoop=1;jettySize=auto;html=1;" parent="1" source="J_k8vYTDvHg9-RJwA689-31" target="J_k8vYTDvHg9-RJwA689-165" edge="1">
          <mxGeometry relative="1" as="geometry" />
        </mxCell>
        <mxCell id="J_k8vYTDvHg9-RJwA689-167" value="3-2-1-2" style="edgeLabel;html=1;align=center;verticalAlign=middle;resizable=0;points=[];" parent="J_k8vYTDvHg9-RJwA689-166" vertex="1" connectable="0">
          <mxGeometry x="0.919" relative="1" as="geometry">
            <mxPoint x="1" as="offset" />
          </mxGeometry>
        </mxCell>
        <mxCell id="j90pp0gv9OP2hR0MzYcj-2" value="" style="edgeStyle=orthogonalEdgeStyle;rounded=0;orthogonalLoop=1;jettySize=auto;html=1;" edge="1" parent="1" source="J_k8vYTDvHg9-RJwA689-31" target="j90pp0gv9OP2hR0MzYcj-1">
          <mxGeometry relative="1" as="geometry" />
        </mxCell>
        <mxCell id="j90pp0gv9OP2hR0MzYcj-3" value="3-2-1-3" style="edgeLabel;html=1;align=center;verticalAlign=middle;resizable=0;points=[];" vertex="1" connectable="0" parent="j90pp0gv9OP2hR0MzYcj-2">
          <mxGeometry x="0.9307" relative="1" as="geometry">
            <mxPoint as="offset" />
          </mxGeometry>
        </mxCell>
        <mxCell id="j90pp0gv9OP2hR0MzYcj-9" value="" style="edgeStyle=orthogonalEdgeStyle;rounded=0;orthogonalLoop=1;jettySize=auto;html=1;" edge="1" parent="1" source="J_k8vYTDvHg9-RJwA689-31" target="j90pp0gv9OP2hR0MzYcj-8">
          <mxGeometry relative="1" as="geometry" />
        </mxCell>
        <mxCell id="j90pp0gv9OP2hR0MzYcj-10" value="3-2-1-4" style="edgeLabel;html=1;align=center;verticalAlign=middle;resizable=0;points=[];" vertex="1" connectable="0" parent="j90pp0gv9OP2hR0MzYcj-9">
          <mxGeometry x="0.9573" relative="1" as="geometry">
            <mxPoint as="offset" />
          </mxGeometry>
        </mxCell>
        <mxCell id="j90pp0gv9OP2hR0MzYcj-12" value="" style="edgeStyle=orthogonalEdgeStyle;rounded=0;orthogonalLoop=1;jettySize=auto;html=1;" edge="1" parent="1" source="J_k8vYTDvHg9-RJwA689-31" target="j90pp0gv9OP2hR0MzYcj-11">
          <mxGeometry relative="1" as="geometry" />
        </mxCell>
        <mxCell id="j90pp0gv9OP2hR0MzYcj-15" value="3-2-1-5" style="edgeLabel;html=1;align=center;verticalAlign=middle;resizable=0;points=[];" vertex="1" connectable="0" parent="j90pp0gv9OP2hR0MzYcj-12">
          <mxGeometry x="0.9559" y="-2" relative="1" as="geometry">
            <mxPoint as="offset" />
          </mxGeometry>
        </mxCell>
        <mxCell id="j90pp0gv9OP2hR0MzYcj-17" value="" style="edgeStyle=orthogonalEdgeStyle;rounded=0;orthogonalLoop=1;jettySize=auto;html=1;" edge="1" parent="1" source="J_k8vYTDvHg9-RJwA689-31" target="j90pp0gv9OP2hR0MzYcj-16">
          <mxGeometry relative="1" as="geometry" />
        </mxCell>
        <mxCell id="j90pp0gv9OP2hR0MzYcj-18" value="3-2-1-6" style="edgeLabel;html=1;align=center;verticalAlign=middle;resizable=0;points=[];" vertex="1" connectable="0" parent="j90pp0gv9OP2hR0MzYcj-17">
          <mxGeometry x="0.9106" y="-2" relative="1" as="geometry">
            <mxPoint x="-2" y="-22" as="offset" />
          </mxGeometry>
        </mxCell>
        <mxCell id="j90pp0gv9OP2hR0MzYcj-20" value="" style="edgeStyle=orthogonalEdgeStyle;rounded=0;orthogonalLoop=1;jettySize=auto;html=1;" edge="1" parent="1" source="J_k8vYTDvHg9-RJwA689-31" target="j90pp0gv9OP2hR0MzYcj-19">
          <mxGeometry relative="1" as="geometry" />
        </mxCell>
        <mxCell id="j90pp0gv9OP2hR0MzYcj-21" value="3-2-1-7" style="edgeLabel;html=1;align=center;verticalAlign=middle;resizable=0;points=[];" vertex="1" connectable="0" parent="j90pp0gv9OP2hR0MzYcj-20">
          <mxGeometry x="0.9518" y="-1" relative="1" as="geometry">
            <mxPoint as="offset" />
          </mxGeometry>
        </mxCell>
        <mxCell id="j90pp0gv9OP2hR0MzYcj-23" value="" style="edgeStyle=orthogonalEdgeStyle;rounded=0;orthogonalLoop=1;jettySize=auto;html=1;" edge="1" parent="1" source="J_k8vYTDvHg9-RJwA689-31" target="j90pp0gv9OP2hR0MzYcj-22">
          <mxGeometry relative="1" as="geometry" />
        </mxCell>
        <mxCell id="j90pp0gv9OP2hR0MzYcj-24" value="3-2-1-8" style="edgeLabel;html=1;align=center;verticalAlign=middle;resizable=0;points=[];" vertex="1" connectable="0" parent="j90pp0gv9OP2hR0MzYcj-23">
          <mxGeometry x="0.9409" relative="1" as="geometry">
            <mxPoint as="offset" />
          </mxGeometry>
        </mxCell>
        <mxCell id="J_k8vYTDvHg9-RJwA689-31" value="1.注册内置的BeanPostProcessor&lt;br&gt;2.注册相关的BeanDefinition" style="whiteSpace=wrap;html=1;align=left;labelBackgroundColor=#ffffff;" parent="1" vertex="1">
          <mxGeometry x="1790" y="12.5" width="230" height="62.5" as="geometry" />
        </mxCell>
        <mxCell id="J_k8vYTDvHg9-RJwA689-34" value="&lt;h1&gt;BeanDefinition&lt;/h1&gt;&lt;p&gt;简称Bean定义，包含元数据信息即Bean的来源，提供属性操作能力，主要用来描述Bean，存放Bean的一系列信息，包括且不限于Bean所对应的Class，是否懒加载，是否是单例等&lt;/p&gt;" style="text;html=1;strokeColor=none;fillColor=none;spacing=5;spacingTop=-20;whiteSpace=wrap;overflow=hidden;rounded=0;labelBackgroundColor=none;align=left;verticalAlign=middle;" parent="1" vertex="1">
          <mxGeometry x="550" y="-480" width="484" height="200" as="geometry" />
        </mxCell>
        <mxCell id="J_k8vYTDvHg9-RJwA689-37" value="Spring内部所需要的BeanDefinition是这个时候进行注册的，之后存放到Map中，还会将BeanName存放到一个list中" style="text;html=1;strokeColor=#d79b00;fillColor=#ffe6cc;align=center;verticalAlign=middle;whiteSpace=wrap;rounded=0;labelBackgroundColor=none;" parent="1" vertex="1">
          <mxGeometry x="2000" y="-151.25" width="232" height="80" as="geometry" />
        </mxCell>
        <mxCell id="J_k8vYTDvHg9-RJwA689-39" value="" style="endArrow=classic;html=1;rounded=0;entryX=0.75;entryY=0;entryDx=0;entryDy=0;exitX=0.25;exitY=1;exitDx=0;exitDy=0;" parent="1" source="J_k8vYTDvHg9-RJwA689-37" target="J_k8vYTDvHg9-RJwA689-31" edge="1">
          <mxGeometry width="50" height="50" relative="1" as="geometry">
            <mxPoint x="2130" y="38.75" as="sourcePoint" />
            <mxPoint x="2180" y="-11.25" as="targetPoint" />
          </mxGeometry>
        </mxCell>
        <mxCell id="J_k8vYTDvHg9-RJwA689-45" value="1.this方法，首先会隐式的调用父类的无参构造函数，通过DefaultListableBeanFactory去创建BeanFactory，因为根据继承关系可知，DefaultListableBeanFactory的功能是最全的&lt;br&gt;2.之后就会去创建AnnotatedBeanDefinitionReader-Bean定义读取器，在创建reader的时候，会注册Spring所需要的BeanPostProcessor-相应的后置处理器，最主要的是ConfigurationClassPathPostProcessor，该后置处理器主要负责解析配置类信息；还会注册内置的BeanDefinition-Bean定义，并将Bean定义放入到Map中，key为BeanName，value为Bean定义，还会将BeanName存放到一个List集合中，方便后续使用&lt;br&gt;3.而对于ClassPathBeanDefinitionScanner，这个scanner仅仅是为了程序员可以手动的调用scan方法，内部不会使用这个scanner，Spring内部在使用的时候会自己new一个scanner" style="text;html=1;strokeColor=#9673a6;fillColor=#e1d5e7;align=left;verticalAlign=middle;whiteSpace=wrap;rounded=0;labelBackgroundColor=none;" parent="1" vertex="1">
          <mxGeometry x="1810" y="-431.25" width="560" height="170" as="geometry" />
        </mxCell>
        <mxCell id="J_k8vYTDvHg9-RJwA689-46" value="3" style="text;html=1;strokeColor=#b85450;fillColor=#f8cecc;align=center;verticalAlign=middle;whiteSpace=wrap;rounded=0;labelBackgroundColor=none;" parent="1" vertex="1">
          <mxGeometry x="1100" y="-470" width="60" height="30" as="geometry" />
        </mxCell>
        <mxCell id="J_k8vYTDvHg9-RJwA689-49" value="创建ClassPathBeanDefinitionScanner，该scaner仅仅是方便外部调用，sping内部不会使用该scanner" style="rounded=0;whiteSpace=wrap;html=1;labelBackgroundColor=none;align=left;verticalAlign=middle;" parent="1" vertex="1">
          <mxGeometry x="1790" y="120" width="230" height="90" as="geometry" />
        </mxCell>
        <mxCell id="J_k8vYTDvHg9-RJwA689-53" value="通过&lt;span style=&quot;color: rgb(36 , 41 , 46) ; font-family: , , , &amp;#34;pingfang sc&amp;#34; , &amp;#34;helvetica&amp;#34; , &amp;#34;arial&amp;#34; , &amp;#34;hiragino sans gb&amp;#34; , &amp;#34;microsoft yahei&amp;#34; , &amp;#34;simsun&amp;#34; , , &amp;#34;heiti&amp;#34; , , sans-serif ; font-size: 14px ; text-align: left&quot;&gt;AnnotatedGenericBeanDefinition的构造方法获取配置类的Bean定义&lt;/span&gt;" style="whiteSpace=wrap;html=1;verticalAlign=middle;labelBackgroundColor=#ffffff;" parent="1" vertex="1">
          <mxGeometry x="2040" y="330" width="220" height="70" as="geometry" />
        </mxCell>
        <mxCell id="J_k8vYTDvHg9-RJwA689-57" value="根据@Condition注解判断是否需要跳过注册" style="whiteSpace=wrap;html=1;verticalAlign=middle;labelBackgroundColor=#ffffff;" parent="1" vertex="1">
          <mxGeometry x="2310" y="423" width="140" height="67" as="geometry" />
        </mxCell>
        <mxCell id="J_k8vYTDvHg9-RJwA689-59" value="解析作用域，如果没有设置，默认为单例" style="whiteSpace=wrap;html=1;verticalAlign=middle;labelBackgroundColor=#ffffff;" parent="1" vertex="1">
          <mxGeometry x="2530" y="490" width="120" height="60" as="geometry" />
        </mxCell>
        <mxCell id="J_k8vYTDvHg9-RJwA689-62" value="获取BeanName" style="whiteSpace=wrap;html=1;verticalAlign=middle;labelBackgroundColor=#ffffff;" parent="1" vertex="1">
          <mxGeometry x="2740" y="525" width="120" height="60" as="geometry" />
        </mxCell>
        <mxCell id="J_k8vYTDvHg9-RJwA689-65" value="解析通用注解，填充到Bean定义中，注解为@Lazy，@Primary，@Role等" style="whiteSpace=wrap;html=1;verticalAlign=middle;labelBackgroundColor=#ffffff;" parent="1" vertex="1">
          <mxGeometry x="2850" y="740" width="150" height="70" as="geometry" />
        </mxCell>
        <mxCell id="J_k8vYTDvHg9-RJwA689-72" value="限定符处理" style="whiteSpace=wrap;html=1;verticalAlign=middle;labelBackgroundColor=#ffffff;" parent="1" vertex="1">
          <mxGeometry x="3080" y="800" width="120" height="60" as="geometry" />
        </mxCell>
        <mxCell id="J_k8vYTDvHg9-RJwA689-74" value="把Bean定义和BeanName封装到Holder对象中-方便传参" style="whiteSpace=wrap;html=1;verticalAlign=middle;labelBackgroundColor=#ffffff;" parent="1" vertex="1">
          <mxGeometry x="3290" y="860" width="130" height="60" as="geometry" />
        </mxCell>
        <mxCell id="J_k8vYTDvHg9-RJwA689-77" value="调用BeanFactory的RegistryBeanDefinition方法注册bean定义" style="whiteSpace=wrap;html=1;verticalAlign=middle;labelBackgroundColor=#ffffff;" parent="1" vertex="1">
          <mxGeometry x="3480" y="970" width="140" height="60" as="geometry" />
        </mxCell>
        <mxCell id="J_k8vYTDvHg9-RJwA689-79" value="调用RegistryBeanDefinition和第3步的注册内置Bean定义的时候是一样的，但是这里面除了Spring内置的Bean，还包括我们传递过来的Bean-即配置类信息" style="text;html=1;strokeColor=#d79b00;fillColor=#ffe6cc;align=center;verticalAlign=middle;whiteSpace=wrap;rounded=0;labelBackgroundColor=none;" parent="1" vertex="1">
          <mxGeometry x="3620" y="840" width="210" height="70" as="geometry" />
        </mxCell>
        <mxCell id="J_k8vYTDvHg9-RJwA689-80" value="" style="endArrow=classic;html=1;rounded=0;entryX=1;entryY=0.5;entryDx=0;entryDy=0;exitX=0.25;exitY=1;exitDx=0;exitDy=0;" parent="1" source="J_k8vYTDvHg9-RJwA689-79" target="J_k8vYTDvHg9-RJwA689-77" edge="1">
          <mxGeometry width="50" height="50" relative="1" as="geometry">
            <mxPoint x="3770" y="1010" as="sourcePoint" />
            <mxPoint x="3820" y="960" as="targetPoint" />
          </mxGeometry>
        </mxCell>
        <mxCell id="J_k8vYTDvHg9-RJwA689-82" value="4" style="rounded=0;whiteSpace=wrap;html=1;labelBackgroundColor=none;align=center;verticalAlign=middle;fillColor=#f8cecc;strokeColor=#b85450;" parent="1" vertex="1">
          <mxGeometry x="1670" y="280" width="70" height="40" as="geometry" />
        </mxCell>
        <mxCell id="J_k8vYTDvHg9-RJwA689-83" value="1.通过&lt;span style=&quot;color: rgb(36 , 41 , 46) ; font-family: , , , &amp;quot;pingfang sc&amp;quot; , &amp;quot;helvetica&amp;quot; , &amp;quot;arial&amp;quot; , &amp;quot;hiragino sans gb&amp;quot; , &amp;quot;microsoft yahei&amp;quot; , &amp;quot;simsun&amp;quot; , , &amp;quot;heiti&amp;quot; , , sans-serif ; font-size: 14px&quot;&gt;AnnotatedGenericBeanDefinition的构造方法，获取配置类的BeanDefinition&lt;br&gt;2.判断是否需要注册，Spring中有一个@Condition注解，如果不满足条件，就会跳过这个类的注解&lt;br&gt;3.解析作用域，如果没有设置，则默认使用单例模式&lt;br&gt;4.获取BeanName&lt;br&gt;5.解析通用注解，填充到&lt;/span&gt;&lt;span style=&quot;color: rgb(36 , 41 , 46) ; font-family: , , , &amp;quot;pingfang sc&amp;quot; , &amp;quot;helvetica&amp;quot; , &amp;quot;arial&amp;quot; , &amp;quot;hiragino sans gb&amp;quot; , &amp;quot;microsoft yahei&amp;quot; , &amp;quot;simsun&amp;quot; , , &amp;quot;heiti&amp;quot; , , sans-serif ; font-size: 14px&quot;&gt;AnnotatedGenericBeanDefinition，解析的注解为@Lazy，@Primary，@DependsOn，@Role，@Description&lt;br&gt;&lt;/span&gt;&lt;span style=&quot;color: rgb(36 , 41 , 46) ; font-family: , , , &amp;quot;pingfang sc&amp;quot; , &amp;quot;helvetica&amp;quot; , &amp;quot;arial&amp;quot; , &amp;quot;hiragino sans gb&amp;quot; , &amp;quot;microsoft yahei&amp;quot; , &amp;quot;simsun&amp;quot; , , &amp;quot;heiti&amp;quot; , , sans-serif ; font-size: 14px&quot;&gt;6.限定符处理，不是特指@Qualifier注解，也有可能是@Primary或者@Lazy注解，获取是其他（理论上任何注解，这里没有判断注解的有效性）&lt;br&gt;7.把&lt;/span&gt;&lt;span style=&quot;color: rgb(36 , 41 , 46) ; font-family: , , , &amp;quot;pingfang sc&amp;quot; , &amp;quot;helvetica&amp;quot; , &amp;quot;arial&amp;quot; , &amp;quot;hiragino sans gb&amp;quot; , &amp;quot;microsoft yahei&amp;quot; , &amp;quot;simsun&amp;quot; , , &amp;quot;heiti&amp;quot; , , sans-serif ; font-size: 14px&quot;&gt;AnnotatedGenericBeanDefinition和BeanName封装到一个Holder对象中，为了方便传参&lt;br&gt;&lt;/span&gt;&lt;span style=&quot;color: rgb(36 , 41 , 46) ; font-family: , , , &amp;quot;pingfang sc&amp;quot; , &amp;quot;helvetica&amp;quot; , &amp;quot;arial&amp;quot; , &amp;quot;hiragino sans gb&amp;quot; , &amp;quot;microsoft yahei&amp;quot; , &amp;quot;simsun&amp;quot; , , &amp;quot;heiti&amp;quot; , , sans-serif ; font-size: 14px&quot;&gt;8.最终会调用DefaultListableBeanFactory的registryBeanDefinition方法去注册Bean定义&lt;br&gt;&lt;/span&gt;" style="text;html=1;strokeColor=#d79b00;fillColor=#ffe6cc;align=left;verticalAlign=middle;whiteSpace=wrap;rounded=0;labelBackgroundColor=none;" parent="1" vertex="1">
          <mxGeometry x="1876" y="740" width="894" height="150" as="geometry" />
        </mxCell>
        <mxCell id="J_k8vYTDvHg9-RJwA689-84" value="之前的步骤，到这里还没有进行扫描，只是实例化了一个工厂类，注册了一些内置的Bean和我们传进去的配置类信息，所以refresh方法异常重要" style="text;html=1;strokeColor=#d79b00;fillColor=#ffe6cc;align=center;verticalAlign=middle;whiteSpace=wrap;rounded=0;labelBackgroundColor=none;" parent="1" vertex="1">
          <mxGeometry x="870" y="730" width="210" height="70" as="geometry" />
        </mxCell>
        <mxCell id="J_k8vYTDvHg9-RJwA689-85" value="" style="endArrow=classic;html=1;rounded=0;exitX=0.25;exitY=1;exitDx=0;exitDy=0;entryX=1;entryY=0.5;entryDx=0;entryDy=0;" parent="1" source="J_k8vYTDvHg9-RJwA689-84" target="J_k8vYTDvHg9-RJwA689-9" edge="1">
          <mxGeometry width="50" height="50" relative="1" as="geometry">
            <mxPoint x="1040" y="940" as="sourcePoint" />
            <mxPoint x="1090" y="890" as="targetPoint" />
          </mxGeometry>
        </mxCell>
        <mxCell id="J_k8vYTDvHg9-RJwA689-88" value="ObtainFreshBeanFactory（）；&lt;br&gt;对于注解方式：和主流程关系不大，仅仅是添加了一个序列化ID&lt;br&gt;对于XML方式，会在这个方法中实现加载Bean定义，并使用耦合的方式，通过reader读取xml，解析成resource对象（耦合：依次执行下来为reader-scanner-registry）" style="whiteSpace=wrap;html=1;verticalAlign=middle;labelBackgroundColor=#ffffff;" parent="1" vertex="1">
          <mxGeometry x="310" y="1086" width="250" height="103" as="geometry" />
        </mxCell>
        <mxCell id="J_k8vYTDvHg9-RJwA689-130" value="" style="edgeStyle=orthogonalEdgeStyle;rounded=0;orthogonalLoop=1;jettySize=auto;html=1;" parent="1" source="J_k8vYTDvHg9-RJwA689-91" target="J_k8vYTDvHg9-RJwA689-129" edge="1">
          <mxGeometry relative="1" as="geometry" />
        </mxCell>
        <mxCell id="J_k8vYTDvHg9-RJwA689-133" value="5-3-1" style="edgeLabel;html=1;align=center;verticalAlign=middle;resizable=0;points=[];" parent="J_k8vYTDvHg9-RJwA689-130" vertex="1" connectable="0">
          <mxGeometry x="0.5593" y="-1" relative="1" as="geometry">
            <mxPoint y="1" as="offset" />
          </mxGeometry>
        </mxCell>
        <mxCell id="J_k8vYTDvHg9-RJwA689-132" value="" style="edgeStyle=orthogonalEdgeStyle;rounded=0;orthogonalLoop=1;jettySize=auto;html=1;" parent="1" source="J_k8vYTDvHg9-RJwA689-91" target="J_k8vYTDvHg9-RJwA689-131" edge="1">
          <mxGeometry relative="1" as="geometry" />
        </mxCell>
        <mxCell id="J_k8vYTDvHg9-RJwA689-134" value="5-3-2" style="edgeLabel;html=1;align=center;verticalAlign=middle;resizable=0;points=[];" parent="J_k8vYTDvHg9-RJwA689-132" vertex="1" connectable="0">
          <mxGeometry x="0.8341" y="1" relative="1" as="geometry">
            <mxPoint x="1" y="14" as="offset" />
          </mxGeometry>
        </mxCell>
        <mxCell id="J_k8vYTDvHg9-RJwA689-136" value="" style="edgeStyle=orthogonalEdgeStyle;rounded=0;orthogonalLoop=1;jettySize=auto;html=1;" parent="1" source="J_k8vYTDvHg9-RJwA689-91" target="J_k8vYTDvHg9-RJwA689-135" edge="1">
          <mxGeometry relative="1" as="geometry" />
        </mxCell>
        <mxCell id="J_k8vYTDvHg9-RJwA689-137" value="5-3-3" style="edgeLabel;html=1;align=center;verticalAlign=middle;resizable=0;points=[];" parent="J_k8vYTDvHg9-RJwA689-136" vertex="1" connectable="0">
          <mxGeometry x="0.8761" relative="1" as="geometry">
            <mxPoint as="offset" />
          </mxGeometry>
        </mxCell>
        <mxCell id="J_k8vYTDvHg9-RJwA689-141" value="" style="edgeStyle=orthogonalEdgeStyle;rounded=0;orthogonalLoop=1;jettySize=auto;html=1;" parent="1" source="J_k8vYTDvHg9-RJwA689-91" target="J_k8vYTDvHg9-RJwA689-140" edge="1">
          <mxGeometry relative="1" as="geometry" />
        </mxCell>
        <mxCell id="J_k8vYTDvHg9-RJwA689-142" value="5-3-4" style="edgeLabel;html=1;align=center;verticalAlign=middle;resizable=0;points=[];" parent="J_k8vYTDvHg9-RJwA689-141" vertex="1" connectable="0">
          <mxGeometry x="0.9159" relative="1" as="geometry">
            <mxPoint as="offset" />
          </mxGeometry>
        </mxCell>
        <mxCell id="J_k8vYTDvHg9-RJwA689-144" value="" style="edgeStyle=orthogonalEdgeStyle;rounded=0;orthogonalLoop=1;jettySize=auto;html=1;" parent="1" source="J_k8vYTDvHg9-RJwA689-91" target="J_k8vYTDvHg9-RJwA689-143" edge="1">
          <mxGeometry relative="1" as="geometry" />
        </mxCell>
        <mxCell id="J_k8vYTDvHg9-RJwA689-145" value="5-3-5" style="edgeLabel;html=1;align=center;verticalAlign=middle;resizable=0;points=[];" parent="J_k8vYTDvHg9-RJwA689-144" vertex="1" connectable="0">
          <mxGeometry x="0.9197" y="1" relative="1" as="geometry">
            <mxPoint as="offset" />
          </mxGeometry>
        </mxCell>
        <mxCell id="J_k8vYTDvHg9-RJwA689-147" value="" style="edgeStyle=orthogonalEdgeStyle;rounded=0;orthogonalLoop=1;jettySize=auto;html=1;" parent="1" source="J_k8vYTDvHg9-RJwA689-91" target="J_k8vYTDvHg9-RJwA689-146" edge="1">
          <mxGeometry relative="1" as="geometry" />
        </mxCell>
        <mxCell id="J_k8vYTDvHg9-RJwA689-148" value="5-3-6" style="edgeLabel;html=1;align=center;verticalAlign=middle;resizable=0;points=[];" parent="J_k8vYTDvHg9-RJwA689-147" vertex="1" connectable="0">
          <mxGeometry x="0.9117" y="2" relative="1" as="geometry">
            <mxPoint as="offset" />
          </mxGeometry>
        </mxCell>
        <mxCell id="J_k8vYTDvHg9-RJwA689-150" value="" style="edgeStyle=orthogonalEdgeStyle;rounded=0;orthogonalLoop=1;jettySize=auto;html=1;" parent="1" source="J_k8vYTDvHg9-RJwA689-91" target="J_k8vYTDvHg9-RJwA689-149" edge="1">
          <mxGeometry relative="1" as="geometry" />
        </mxCell>
        <mxCell id="J_k8vYTDvHg9-RJwA689-151" value="5-3-7" style="edgeLabel;html=1;align=center;verticalAlign=middle;resizable=0;points=[];" parent="J_k8vYTDvHg9-RJwA689-150" vertex="1" connectable="0">
          <mxGeometry x="0.9396" y="1" relative="1" as="geometry">
            <mxPoint as="offset" />
          </mxGeometry>
        </mxCell>
        <mxCell id="J_k8vYTDvHg9-RJwA689-153" value="" style="edgeStyle=orthogonalEdgeStyle;rounded=0;orthogonalLoop=1;jettySize=auto;html=1;" parent="1" source="J_k8vYTDvHg9-RJwA689-91" target="J_k8vYTDvHg9-RJwA689-152" edge="1">
          <mxGeometry relative="1" as="geometry" />
        </mxCell>
        <mxCell id="J_k8vYTDvHg9-RJwA689-154" value="5-3-8" style="edgeLabel;html=1;align=center;verticalAlign=middle;resizable=0;points=[];" parent="J_k8vYTDvHg9-RJwA689-153" vertex="1" connectable="0">
          <mxGeometry x="0.9245" y="1" relative="1" as="geometry">
            <mxPoint as="offset" />
          </mxGeometry>
        </mxCell>
        <mxCell id="J_k8vYTDvHg9-RJwA689-156" value="" style="edgeStyle=orthogonalEdgeStyle;rounded=0;orthogonalLoop=1;jettySize=auto;html=1;" parent="1" source="J_k8vYTDvHg9-RJwA689-91" target="J_k8vYTDvHg9-RJwA689-155" edge="1">
          <mxGeometry relative="1" as="geometry" />
        </mxCell>
        <mxCell id="J_k8vYTDvHg9-RJwA689-157" value="5-3-9" style="edgeLabel;html=1;align=center;verticalAlign=middle;resizable=0;points=[];" parent="J_k8vYTDvHg9-RJwA689-156" vertex="1" connectable="0">
          <mxGeometry x="0.837" relative="1" as="geometry">
            <mxPoint as="offset" />
          </mxGeometry>
        </mxCell>
        <mxCell id="J_k8vYTDvHg9-RJwA689-91" value="prepareBeanFactory（BeanFactory）&lt;br&gt;主要做了一些属性填充的一些工作：包括且不限于，添加了两个后置处理器：ApplicationContextAwareProcessor和ApplicationListenerDetector，还设置了忽略自动装配以及允许自动装配的接口，并且会判断某个Bean是否存在，不存在则使用单例模式创建该Bean，同时也设置了Bean表达式的解析器" style="rounded=0;whiteSpace=wrap;html=1;labelBackgroundColor=none;align=left;verticalAlign=middle;" parent="1" vertex="1">
          <mxGeometry x="110" y="1270" width="290" height="120" as="geometry" />
        </mxCell>
        <mxCell id="J_k8vYTDvHg9-RJwA689-93" value="prepareRefresh（）&lt;br&gt;准备上下文环境，和主流程关系不大，保存了容器的启动时间，启动标志等" style="rounded=0;whiteSpace=wrap;html=1;labelBackgroundColor=none;align=left;verticalAlign=middle;" parent="1" vertex="1">
          <mxGeometry x="430" y="930" width="170" height="70" as="geometry" />
        </mxCell>
        <mxCell id="J_k8vYTDvHg9-RJwA689-96" value="PostProcessBeanFactory（BeanFactory）&lt;br&gt;这是一个空方法-留给子类去实现该接口" style="rounded=0;whiteSpace=wrap;html=1;labelBackgroundColor=none;align=left;verticalAlign=middle;" parent="1" vertex="1">
          <mxGeometry x="200" y="1500" width="230" height="60" as="geometry" />
        </mxCell>
        <mxCell id="J_k8vYTDvHg9-RJwA689-99" value="invokeBeanFactoryPostProcessors（BeanFactory）&lt;br&gt;执行自定义的BeanFactoryPostProcessor和内置的BeanFactoryPostProcessor（首先会执行BeanDefinitionRegistryPostProcessor（注册Bean定义），之后会执行BeanFactoryPostProcessor（修改Bean定义））" style="rounded=0;whiteSpace=wrap;html=1;labelBackgroundColor=none;align=left;verticalAlign=middle;" parent="1" vertex="1">
          <mxGeometry x="-30" y="1640" width="300" height="120" as="geometry" />
        </mxCell>
        <mxCell id="J_k8vYTDvHg9-RJwA689-104" value="重要" style="text;html=1;strokeColor=#d79b00;fillColor=#ffe6cc;align=center;verticalAlign=middle;whiteSpace=wrap;rounded=0;labelBackgroundColor=none;" parent="1" vertex="1">
          <mxGeometry x="270" y="1640" width="60" height="30" as="geometry" />
        </mxCell>
        <mxCell id="J_k8vYTDvHg9-RJwA689-105" value="重要" style="text;html=1;strokeColor=#d79b00;fillColor=#ffe6cc;align=center;verticalAlign=middle;whiteSpace=wrap;rounded=0;labelBackgroundColor=none;" parent="1" vertex="1">
          <mxGeometry x="656" y="810" width="60" height="30" as="geometry" />
        </mxCell>
        <mxCell id="J_k8vYTDvHg9-RJwA689-106" value="registryBeanPostProcessors（BeanFactory）&lt;br&gt;注册BeanPostProcessor" style="rounded=0;whiteSpace=wrap;html=1;labelBackgroundColor=none;align=left;verticalAlign=middle;" parent="1" vertex="1">
          <mxGeometry x="344" y="1950" width="156" height="80" as="geometry" />
        </mxCell>
        <mxCell id="J_k8vYTDvHg9-RJwA689-110" value="initMessageSource&lt;br&gt;初始化国际化资源处理器" style="rounded=0;whiteSpace=wrap;html=1;labelBackgroundColor=none;align=left;verticalAlign=middle;" parent="1" vertex="1">
          <mxGeometry x="1070" y="2210" width="145" height="60" as="geometry" />
        </mxCell>
        <mxCell id="J_k8vYTDvHg9-RJwA689-113" value="initApplicationEventMulticaster创建事件多播器" style="rounded=0;whiteSpace=wrap;html=1;labelBackgroundColor=none;align=left;verticalAlign=middle;" parent="1" vertex="1">
          <mxGeometry x="1180" y="2420" width="170" height="60" as="geometry" />
        </mxCell>
        <mxCell id="J_k8vYTDvHg9-RJwA689-116" value="onFresh&lt;br&gt;同样也是一个空方法，留给子类去实现，SpringBoot是从这个方法启动tomcat的" style="rounded=0;whiteSpace=wrap;html=1;labelBackgroundColor=none;align=left;verticalAlign=middle;" parent="1" vertex="1">
          <mxGeometry x="1181" y="2620" width="159" height="80" as="geometry" />
        </mxCell>
        <mxCell id="J_k8vYTDvHg9-RJwA689-119" value="registryListeners（）&lt;br&gt;把我们的事件注册到事件多播器上" style="rounded=0;whiteSpace=wrap;html=1;labelBackgroundColor=none;align=left;verticalAlign=middle;" parent="1" vertex="1">
          <mxGeometry x="1170.5" y="2840" width="189" height="70" as="geometry" />
        </mxCell>
        <mxCell id="J_k8vYTDvHg9-RJwA689-122" value="finishBeanFactoryInitialization（BeanFactory）&lt;br&gt;实例化我们剩余的Bean" style="rounded=0;whiteSpace=wrap;html=1;labelBackgroundColor=none;align=left;verticalAlign=middle;" parent="1" vertex="1">
          <mxGeometry x="1170.5" y="3040" width="270" height="80" as="geometry" />
        </mxCell>
        <mxCell id="J_k8vYTDvHg9-RJwA689-126" value="finishRefresh（）&lt;br&gt;刷新容器-发布刷新事件，Springcloud是从这里启动的" style="rounded=0;whiteSpace=wrap;html=1;labelBackgroundColor=none;align=left;verticalAlign=middle;" parent="1" vertex="1">
          <mxGeometry x="1310" y="3270" width="200" height="80" as="geometry" />
        </mxCell>
        <mxCell id="J_k8vYTDvHg9-RJwA689-129" value="设置Bean工厂的类加载器为当前ApplicationContex的类加载器" style="whiteSpace=wrap;html=1;rounded=0;align=left;" parent="1" vertex="1">
          <mxGeometry x="-90" y="1190" width="180" height="50" as="geometry" />
        </mxCell>
        <mxCell id="J_k8vYTDvHg9-RJwA689-131" value="设置Bean表达式解析器" style="whiteSpace=wrap;html=1;rounded=0;align=left;" parent="1" vertex="1">
          <mxGeometry x="-290" y="1169" width="130" height="50" as="geometry" />
        </mxCell>
        <mxCell id="J_k8vYTDvHg9-RJwA689-135" value="设置属性编辑器" style="whiteSpace=wrap;html=1;rounded=0;align=left;" parent="1" vertex="1">
          <mxGeometry x="-540" y="1150" width="120" height="60" as="geometry" />
        </mxCell>
        <mxCell id="J_k8vYTDvHg9-RJwA689-140" value="添加一个后置处理器ApplicationContextAwareProcessor，用来处理ApplicationContextAware接口的回调方法" style="whiteSpace=wrap;html=1;rounded=0;align=left;" parent="1" vertex="1">
          <mxGeometry x="-850" y="1140" width="210" height="70" as="geometry" />
        </mxCell>
        <mxCell id="J_k8vYTDvHg9-RJwA689-143" value="设置了一些忽略自动装配的接口" style="whiteSpace=wrap;html=1;rounded=0;align=left;" parent="1" vertex="1">
          <mxGeometry x="-990" y="1460" width="120" height="50" as="geometry" />
        </mxCell>
        <mxCell id="J_k8vYTDvHg9-RJwA689-146" value="设置了一些允许自动装配的接口，并进行了赋值操作" style="whiteSpace=wrap;html=1;rounded=0;align=left;" parent="1" vertex="1">
          <mxGeometry x="-1200" y="1500" width="150" height="60" as="geometry" />
        </mxCell>
        <mxCell id="J_k8vYTDvHg9-RJwA689-149" value="添加了一个后置处理器ApplicationListenerDetector" style="whiteSpace=wrap;html=1;rounded=0;align=left;" parent="1" vertex="1">
          <mxGeometry x="-1440" y="1550" width="160" height="60" as="geometry" />
        </mxCell>
        <mxCell id="J_k8vYTDvHg9-RJwA689-152" value="处理AspectJ的方法" style="whiteSpace=wrap;html=1;rounded=0;align=left;" parent="1" vertex="1">
          <mxGeometry x="-1690" y="1625" width="110" height="55" as="geometry" />
        </mxCell>
        <mxCell id="J_k8vYTDvHg9-RJwA689-155" value="注册BeanFactory内部的Bean" style="whiteSpace=wrap;html=1;rounded=0;align=left;" parent="1" vertex="1">
          <mxGeometry x="-2010" y="1710" width="120" height="60" as="geometry" />
        </mxCell>
        <mxCell id="J_k8vYTDvHg9-RJwA689-160" value="internalConfigurationAnnotationProcessor#ConfigurationClassPostProcessor&lt;br&gt;注册配置类解析后置处理器哦ConfigurationClassPostProcessor&lt;br&gt;&lt;span style=&quot;text-align: center ; background-color: rgb(248 , 249 , 250)&quot;&gt;ConfigurationClassPostProcessors这个类会接续加了@Configuration的配置类，还会解析@ComponentScan、@ComponScans、@Import等注解&lt;/span&gt;" style="whiteSpace=wrap;html=1;align=left;labelBackgroundColor=#ffffff;" parent="1" vertex="1">
          <mxGeometry x="2060" y="130" width="410" height="90" as="geometry" />
        </mxCell>
        <mxCell id="J_k8vYTDvHg9-RJwA689-164" value="负责处理配置类" style="text;html=1;strokeColor=#d79b00;fillColor=#ffe6cc;align=center;verticalAlign=middle;whiteSpace=wrap;rounded=0;labelBackgroundColor=none;" parent="1" vertex="1">
          <mxGeometry x="2290" y="100" width="90" height="30" as="geometry" />
        </mxCell>
        <mxCell id="J_k8vYTDvHg9-RJwA689-165" value="internalEventListenerFactory#DefaultEventListenerFactory&lt;br&gt;注册DefaultEventListenerFactory。为标注了@EventListener注解的方法负责创建监听器ApplicationListenerMethodAdapter" style="whiteSpace=wrap;html=1;align=left;labelBackgroundColor=#ffffff;" parent="1" vertex="1">
          <mxGeometry x="2541" y="130" width="319" height="90" as="geometry" />
        </mxCell>
        <mxCell id="j90pp0gv9OP2hR0MzYcj-1" value="InternalEventListenerFactory#EventListenerMethodProcessor&lt;br&gt;获取方法中所有标注了@EventListener注解的方法并创建事件适配器、事件监听器，并最终将其添加到监听器集合中" style="whiteSpace=wrap;html=1;align=left;labelBackgroundColor=#ffffff;" vertex="1" parent="1">
          <mxGeometry x="2920" y="130" width="340" height="90" as="geometry" />
        </mxCell>
        <mxCell id="j90pp0gv9OP2hR0MzYcj-5" value="" style="shape=curlyBracket;whiteSpace=wrap;html=1;rounded=1;direction=north;" vertex="1" parent="1">
          <mxGeometry x="2800" y="220" width="190" height="20" as="geometry" />
        </mxCell>
        <mxCell id="j90pp0gv9OP2hR0MzYcj-6" value="&lt;meta charset=&quot;utf-8&quot;&gt;&lt;span style=&quot;color: rgb(0, 0, 0); font-family: helvetica; font-size: 12px; font-style: normal; font-weight: 400; letter-spacing: normal; text-align: center; text-indent: 0px; text-transform: none; word-spacing: 0px; background-color: rgb(248, 249, 250); display: inline; float: none;&quot;&gt;负责处理@EventLIstener&lt;/span&gt;" style="text;html=1;strokeColor=none;fillColor=none;align=center;verticalAlign=middle;whiteSpace=wrap;rounded=0;" vertex="1" parent="1">
          <mxGeometry x="2830" y="240" width="150" height="20" as="geometry" />
        </mxCell>
        <mxCell id="j90pp0gv9OP2hR0MzYcj-8" value="internalAutowiredAnnotationProcessor#&lt;br&gt;AutowiredAnnotationBeanPostProcessor&lt;br&gt;主要用于解析@Autowired注解" style="whiteSpace=wrap;html=1;align=left;labelBackgroundColor=#ffffff;" vertex="1" parent="1">
          <mxGeometry x="3360" y="140" width="220" height="70" as="geometry" />
        </mxCell>
        <mxCell id="j90pp0gv9OP2hR0MzYcj-11" value="&lt;span&gt;internalAutowiredAnnotationProcessor#&lt;br&gt;CommonAnnotationBeanPostProcessor&lt;br&gt;负责解析@Resource、@WebServiceRef、@EJB这三个注解，属于JAVA中的注解&lt;br&gt;&lt;br&gt;&lt;/span&gt;" style="whiteSpace=wrap;html=1;align=left;labelBackgroundColor=#ffffff;verticalAlign=middle;" vertex="1" parent="1">
          <mxGeometry x="3520" y="-140" width="240" height="80" as="geometry" />
        </mxCell>
        <mxCell id="j90pp0gv9OP2hR0MzYcj-16" value="&lt;span&gt;internalAutowiredAnnotationProcessor#&lt;br&gt;RequiredAnnotationBeanPostProcessor&lt;br&gt;主要负责解析@required注解，保证所对应的属性必须被设置&lt;br&gt;&lt;/span&gt;" style="whiteSpace=wrap;html=1;align=left;labelBackgroundColor=#ffffff;" vertex="1" parent="1">
          <mxGeometry x="3810" y="-191.25" width="240" height="60" as="geometry" />
        </mxCell>
        <mxCell id="j90pp0gv9OP2hR0MzYcj-19" value="AnnotationAwareOrderCompartor&lt;br&gt;解析Order进行排序&lt;br&gt;" style="whiteSpace=wrap;html=1;align=left;labelBackgroundColor=#ffffff;" vertex="1" parent="1">
          <mxGeometry x="4150" y="-190" width="120" height="60" as="geometry" />
        </mxCell>
        <mxCell id="j90pp0gv9OP2hR0MzYcj-22" value="ContextAnnotationAutowiredCandidateResolver" style="whiteSpace=wrap;html=1;align=left;labelBackgroundColor=#ffffff;" vertex="1" parent="1">
          <mxGeometry x="4330" y="-230" width="260" height="40" as="geometry" />
        </mxCell>
      </root>
    </mxGraphModel>
  </diagram>
</mxfile>
